<svg width="24" height="37" viewBox="0 0 24 37" fill="none" xmlns="http://www.w3.org/2000/svg">
<mask id="mask0_3_1899" style="mask-type:luminance" maskUnits="userSpaceOnUse" x="0" y="0" width="24" height="37">
<path fill-rule="evenodd" clip-rule="evenodd" d="M0 0H24V37H0V0Z" fill="white"/>
</mask>
<g mask="url(#mask0_3_1899)">
<path fill-rule="evenodd" clip-rule="evenodd" d="M17.237 16.533L19.2941 16.2208C19.2242 18.3351 18.4153 20.3299 17.1351 21.8503C16.8235 21.6638 16.5 21.5016 16.1624 21.3638C16.8295 19.8738 17.213 18.2297 17.237 16.533ZM14.4768 22.1807C14.299 22.4686 13.588 23.5045 12.9329 24.1288L12.841 22.0854C13.3963 22.0469 13.9435 22.0794 14.4768 22.1807ZM15.5852 22.499C15.8009 22.5821 16.0126 22.6794 16.2184 22.7868C15.743 23.2065 15.2237 23.5673 14.6725 23.8592C15.004 23.4295 15.3096 22.9754 15.5852 22.499ZM12.7851 20.8428L12.6233 17.2303L16.1085 16.7032C16.0865 17.7351 15.8329 19.6123 15.1019 21.0212C14.3649 20.8428 13.588 20.7779 12.7851 20.8428ZM11.2852 12.663L11.441 16.162L7.9458 16.6911C7.8739 14.8869 8.70076 12.7847 8.84456 12.4542C9.61749 12.6529 10.4364 12.7279 11.2852 12.663ZM10.0669 24.5566C9.49566 24.4329 8.95041 24.2343 8.44311 23.9646C8.63684 23.7964 8.83857 23.6362 9.04428 23.4882C9.35785 23.8754 9.69938 24.2322 10.0669 24.5566ZM4.82412 18.4122L6.88327 18.1C7.05703 19.7663 7.5823 21.2725 8.37321 22.5415C8.05365 22.7808 7.74807 23.0382 7.45847 23.3159C6.06041 22.199 5.08376 20.4758 4.82412 18.4122ZM6.81936 16.8614L4.75821 17.1715C4.79016 15.0795 5.54712 13.0948 6.77542 11.5542C7.09897 11.7609 7.4405 11.9414 7.79201 12.0934C7.16887 13.5712 6.81936 15.191 6.81936 16.8614ZM8.34724 10.9501C8.10758 10.8507 7.8759 10.7352 7.65021 10.6075C8.17548 10.1169 8.75868 9.69727 9.38581 9.36683C9.00234 9.86349 8.65282 10.3926 8.34724 10.9501ZM8.00971 17.9277L11.4969 17.4006L11.6587 21.011C10.8618 21.1914 10.0988 21.4874 9.38781 21.8847C8.44311 20.411 8.12355 18.9392 8.00971 17.9277ZM15.8029 10.8811C16.1385 10.6257 16.458 10.3439 16.7596 10.0439C18.1077 11.1933 19.0325 12.9246 19.2502 14.9801L17.191 15.2923C17.0412 13.6442 16.5519 12.1502 15.8029 10.8811ZM10.1088 22.8416C10.6261 22.5801 11.1634 22.3834 11.7146 22.2537L11.8065 24.2971C11.0954 23.8694 10.3105 23.0727 10.1088 22.8416ZM12.3537 11.2501L12.2498 8.92896C12.6193 9.16209 13.616 9.88985 14.1173 10.5831C13.55 10.8832 12.9609 11.1062 12.3537 11.2501ZM13.9894 8.66948C14.6365 8.80935 15.2497 9.04654 15.8109 9.37291C15.6012 9.56752 15.3815 9.74997 15.1558 9.92026C14.8023 9.46211 14.4129 9.04451 13.9894 8.66948ZM9.43175 11.2906C10.0469 10.273 10.7799 9.43981 11.1254 9.09924L11.2293 11.4204C10.6181 11.4609 10.0169 11.4184 9.43175 11.2906ZM16.0626 15.4626L12.5674 15.9917L12.4096 12.4928C13.2525 12.3022 14.0554 11.9819 14.8003 11.5521C14.9701 11.836 15.8968 13.4922 16.0626 15.4626ZM21.1835 35.7244C20.7201 36.0345 20.0231 36.067 19.6476 36.0832C19.0464 36.1116 8.94442 36.1501 4.17102 36.144L21.8286 34.202C21.7887 35.3149 21.3413 35.6169 21.1835 35.7244ZM11.5968 7.29707C16.2663 6.5835 20.2428 10.1757 20.4825 15.3207C20.7181 20.4657 17.1271 25.2134 12.4596 25.929C7.79002 26.6426 3.81351 23.0504 3.57584 17.9074C3.33817 12.7624 6.92921 8.01267 11.5968 7.29707ZM23.9976 31.4896L22.6774 2.06489C22.6195 0.75735 21.6089 -0.15894 20.4225 0.0214796L2.04396 2.80279C0.857601 2.98118 -0.0571338 4.18736 0.00278334 5.4949L1.32096 34.9196C1.37688 36.1562 2.28363 37.042 3.38411 36.9833C3.38411 36.9833 18.5631 37.0258 19.6876 36.9752C20.794 36.9245 22.7713 36.7501 22.7094 33.9141C23.5063 33.4519 24.0435 32.5011 23.9976 31.4896Z" fill="#353D47"/>
</g>
</svg>
