<?xml version="1.0" encoding="UTF-8"?>
<svg width="138px" height="124px" viewBox="0 0 138 124" version="1.1" xmlns="http://www.w3.org/2000/svg" xmlns:xlink="http://www.w3.org/1999/xlink">
    <title>ICONS-used throughout</title>
    <defs>
        <polygon id="path-1" points="0 0 243 0 243 243 0 243"></polygon>
    </defs>
    <g id="Page-1" stroke="none" stroke-width="1" fill="none" fill-rule="evenodd">
        <g id="ICONS-used-throughout" transform="translate(-162.000000, -839.000000)">
            <g id="consulado" transform="translate(104.000000, 811.000000)">
                <path d="M224.970183,240.000741 L18.0316205,240.000741 C9.767541,240.000741 3.00602137,233.249032 3.00602137,224.996944 L3.00602137,15.3578869 C3.00602137,7.10579838 9.767541,0.354089615 18.0316205,0.354089615 L224.970183,0.354089615 C233.234262,0.354089615 239.995782,7.10579838 239.995782,15.3578869 L239.995782,224.996944 C239.995782,233.249032 233.234262,240.000741 224.970183,240.000741" id="Fill-1" fill="#FEFEFE"></path>
                <g id="Group-5">
                    <mask id="mask-2" fill="white">
                        <use xlink:href="#path-1"></use>
                    </mask>
                    <g id="Clip-4"></g>
                    <path d="M16.5281591,2.99925907 C9.07245678,2.99925907 3.00511983,9.0577924 3.00511983,16.5026766 L3.00511983,226.495823 C3.00511983,233.943708 9.07245678,239.999241 16.5281591,239.999241 L226.471841,239.999241 C233.930548,239.999241 239.99488,233.943708 239.99488,226.495823 L239.99488,16.5026766 C239.99488,9.0577924 233.930548,2.99925907 226.471841,2.99925907 L16.5281591,2.99925907 Z M226.471841,243 L16.5281591,243 C7.41363063,243 0,235.597126 0,226.495823 L0,16.5026766 C0,7.40137319 7.41363063,-0.00150037973 16.5281591,-0.00150037973 L226.471841,-0.00150037973 C235.586369,-0.00150037973 243,7.40137319 243,16.5026766 L243,226.495823 C243,235.597126 235.586369,243 226.471841,243 L226.471841,243 Z" id="Fill-3" fill="#363D47" mask="url(#mask-2)"></path>
                </g>
                <path d="M152.940465,61.5740836 L148.285535,61.5740836 C149.229142,61.244 149.800115,60.8478998 149.857212,60.3557752 C150.440206,55.5335548 152.465656,52.3167407 145.367563,52.9529017 C138.26947,53.5920634 100.879769,61.5890874 100.879769,61.5890874 L100.879769,138.162467 C100.936867,138.165468 100.984948,138.180472 101.042046,138.180472 L152.940465,138.180472 C157.721611,138.180472 161.634277,134.354503 161.634277,129.682321 L161.634277,70.0692336 C161.634277,65.3970511 157.721611,61.5740836 152.940465,61.5740836" id="Fill-6" fill="#9CD7D4"></path>
                <path d="M141.23913,47.3381807 C142.209783,47.134129 143.207483,47.3741898 143.976794,47.9983477 C144.746104,48.6225057 145.187857,49.5497404 145.187857,50.539991 L145.187857,54.4289752 L107.464588,54.4289752 L141.23913,47.3381807 Z M151.64586,60.5085139 L151.64586,125.438947 C151.64586,127.245404 150.179361,128.709775 148.370279,128.709775 L95.3509498,128.709775 L95.3509498,57.2376861 L146.594253,57.2376861 L148.373284,57.2376861 C150.179361,57.2376861 151.64586,58.7050575 151.64586,60.5085139 L151.64586,60.5085139 Z M93.9445537,131.518486 L148.373284,131.518486 C151.730003,131.518486 154.461657,128.793796 154.461657,125.438947 L154.461657,60.5085139 C154.461657,57.1566656 151.730003,54.4289752 148.373284,54.4289752 L148.000649,54.4289752 L148.000649,50.539991 C148.000649,48.6975247 147.180252,46.9780895 145.749814,45.8197964 C144.319377,44.6585025 142.465219,44.2113893 140.662147,44.589485 L93.6620724,54.4589828 C93.6620724,54.4589828 93.6590673,54.4589828 93.6560622,54.4589828 L93.6530571,54.4589828 C93.6530571,54.4589828 93.6530571,54.4619836 93.6500519,54.4619836 C93.4817652,54.4979927 93.325499,54.5640094 93.1842584,54.6540322 C93.1782481,54.657033 93.1722379,54.6600337 93.1662276,54.6630345 C93.0370075,54.7500565 92.9228129,54.8610846 92.8266491,54.9871165 C92.8176337,54.9991195 92.8086184,55.0081218 92.799603,55.0201248 C92.7124546,55.143156 92.649347,55.2781902 92.6042702,55.4252274 C92.5952549,55.4462327 92.5892446,55.467238 92.5832344,55.4882433 C92.5561883,55.5992714 92.5351525,55.716301 92.5351525,55.8333307 L92.5351525,130.11413 C92.5381576,130.891327 93.1662276,131.518486 93.9445537,131.518486 L93.9445537,131.518486 Z" id="Fill-8" fill="#363D47"></path>
                <path d="M143.184344,102.371509 L103.811264,102.371509 C103.035943,102.371509 102.407873,102.998668 102.407873,103.775864 C102.407873,104.553061 103.035943,105.18022 103.811264,105.18022 L143.184344,105.18022 C143.959665,105.18022 144.59074,104.553061 144.59074,103.775864 C144.59074,102.998668 143.959665,102.371509 143.184344,102.371509" id="Fill-10" fill="#363D47"></path>
                <path d="M143.184344,109.662154 L103.811264,109.662154 C103.035943,109.662154 102.407873,110.289313 102.407873,111.066509 C102.407873,111.843706 103.035943,112.470865 103.811264,112.470865 L143.184344,112.470865 C143.959665,112.470865 144.59074,111.843706 144.59074,111.066509 C144.59074,110.289313 143.959665,109.662154 143.184344,109.662154" id="Fill-12" fill="#363D47"></path>
                <path d="M137.547039,116.951899 L109.449169,116.951899 C108.673848,116.951899 108.042773,117.579058 108.042773,118.356254 C108.042773,119.133451 108.673848,119.76061 109.449169,119.76061 L137.547039,119.76061 C138.325365,119.76061 138.953435,119.133451 138.953435,118.356254 C138.953435,117.579058 138.325365,116.951899 137.547039,116.951899" id="Fill-14" fill="#363D47"></path>
                <path d="M115.739786,73.970821 C115.4543,75.3151612 115.264977,76.7555258 115.19586,78.2709093 L111.030764,78.2709093 C111.238117,76.4134392 111.860177,74.6880025 112.791764,73.1636167 C113.696305,73.4756957 114.684989,73.7457641 115.739786,73.970821 L115.739786,73.970821 Z M116.491066,71.2611352 C115.84196,71.1261011 115.225911,70.9730623 114.639912,70.802019 C115.535438,69.9077927 116.569199,69.1576029 117.699124,68.5664532 C117.242346,69.3736575 116.836655,70.2768861 116.491066,71.2611352 L116.491066,71.2611352 Z M130.506945,71.2611352 C130.161356,70.2768861 129.755665,69.3736575 129.298887,68.5664532 C130.428812,69.1576029 131.462573,69.9107935 132.358099,70.802019 C131.772101,70.9730623 131.156051,71.1261011 130.506945,71.2611352 L130.506945,71.2611352 Z M130.506945,88.0863935 C131.156051,88.2184269 131.772101,88.3744664 132.358099,88.5455097 C131.462573,89.4367352 130.428812,90.1869251 129.298887,90.7780747 C129.755665,89.9738712 130.161356,89.0706426 130.506945,88.0863935 L130.506945,88.0863935 Z M116.491066,88.0863935 C116.836655,89.0706426 117.242346,89.9738712 117.699124,90.7780747 C116.569199,90.1869251 115.535438,89.4367352 114.639912,88.5425089 C115.225911,88.3744664 115.84196,88.2184269 116.491066,88.0863935 L116.491066,88.0863935 Z M122.09261,87.4382294 L122.09261,91.7293154 C121.052838,91.03614 120.058144,89.6167808 119.303858,87.6452818 C120.208399,87.543256 121.139987,87.4712378 122.09261,87.4382294 L122.09261,87.4382294 Z M122.09261,81.0766194 L122.09261,84.6295186 C120.866521,84.6715292 119.661468,84.7645528 118.504497,84.9085892 C118.252066,83.7352923 118.07777,82.453968 118.005647,81.0766194 L122.09261,81.0766194 Z M122.09261,74.7180101 L122.09261,78.2679085 L118.005647,78.2679085 C118.07777,76.89056 118.252066,75.6092357 118.504497,74.4359387 C119.661468,74.5829759 120.866521,74.6759995 122.09261,74.7180101 L122.09261,74.7180101 Z M122.09261,71.9092993 C121.139987,71.8732902 120.208399,71.8042727 119.303858,71.7022469 C120.058144,69.7307479 121.052838,68.3113887 122.09261,67.6182133 L122.09261,71.9092993 Z M124.905402,71.9092993 L124.905402,67.6182133 C125.945173,68.3113887 126.939868,69.7307479 127.694153,71.7022469 C126.789612,71.8042727 125.858025,71.8732902 124.905402,71.9092993 L124.905402,71.9092993 Z M124.905402,78.2679085 L124.905402,74.7180101 C126.131491,74.6759995 127.333539,74.5829759 128.493515,74.4359387 C128.745945,75.6092357 128.920242,76.89056 128.98936,78.2679085 L124.905402,78.2679085 Z M124.905402,84.6295186 L124.905402,81.0766194 L128.98936,81.0766194 C128.920242,82.4569687 128.745945,83.738293 128.493515,84.91159 C127.333539,84.7645528 126.131491,84.6715292 124.905402,84.6295186 L124.905402,84.6295186 Z M124.905402,87.4382294 C125.858025,87.4712378 126.789612,87.543256 127.694153,87.6452818 C126.939868,89.61378 125.945173,91.03614 124.905402,91.7293154 L124.905402,87.4382294 Z M111.027758,81.0766194 L115.192854,81.0766194 C115.264977,82.5890022 115.4543,84.0293667 115.739786,85.3767077 C114.684989,85.6017646 113.6933,85.8688322 112.788759,86.1809112 C111.860177,84.6595262 111.238117,82.9310887 111.027758,81.0766194 L111.027758,81.0766194 Z M134.206248,86.1809112 C133.301707,85.8688322 132.313022,85.6017646 131.258225,85.3767077 C131.543712,84.0293667 131.730029,82.5890022 131.802152,81.0766194 L135.967248,81.0766194 C135.759895,82.9310887 135.137835,84.6595262 134.206248,86.1809112 L134.206248,86.1809112 Z M135.967248,78.2679085 L131.802152,78.2679085 C131.733034,76.7555258 131.543712,75.3151612 131.258225,73.970821 C132.313022,73.7457641 133.301707,73.4756957 134.206248,73.1636167 C135.137835,74.6850018 135.759895,76.4134392 135.967248,78.2679085 L135.967248,78.2679085 Z M108.133828,79.672264 C108.133828,83.0211115 109.224687,86.1148945 111.054804,88.6385332 C111.087861,88.6895461 111.123922,88.7375583 111.162989,88.7825697 C113.96376,92.5545243 118.444394,95.015147 123.499006,95.015147 C128.538592,95.015147 133.007205,92.5695281 135.807977,88.815578 C135.832018,88.7915719 135.847043,88.7645651 135.868079,88.7375583 C137.743274,86.195915 138.864183,83.0661229 138.864183,79.672264 C138.864183,76.3234164 137.773325,73.2326342 135.940202,70.7059947 C135.907146,70.6549818 135.871084,70.6069697 135.832018,70.5619583 C133.031246,66.7900036 128.553617,64.3293809 123.499006,64.3293809 C118.444394,64.3293809 113.96376,66.7900036 111.162989,70.564959 C111.123922,70.6099704 111.087861,70.6549818 111.054804,70.7059947 C109.224687,73.2326342 108.133828,76.3234164 108.133828,79.672264 L108.133828,79.672264 Z" id="Fill-16" fill="#363D47"></path>
            </g>
        </g>
    </g>
</svg>