<svg width="438" height="66" viewBox="0 0 438 66" fill="none" xmlns="http://www.w3.org/2000/svg">
<path fill-rule="evenodd" clip-rule="evenodd" d="M266 57.8694V62.4828C262.851 64.1602 259.216 65 255.098 65C251.748 65 248.905 64.3431 246.577 63.0292C244.243 61.7153 242.4 59.9061 241.039 57.5994C239.681 55.2927 239 52.7989 239 50.1137C239 45.8511 240.554 42.2667 243.667 39.3604C246.777 36.4542 250.618 35 255.183 35C258.33 35 261.828 35.8015 265.678 37.4088V41.918C262.171 39.9621 258.743 38.982 255.396 38.982C251.963 38.982 249.112 40.0429 246.844 42.1582C244.578 44.2779 243.442 46.929 243.442 50.1137C243.442 53.3283 244.559 55.9709 246.79 58.0395C249.021 60.1081 251.876 61.1413 255.355 61.1413C258.987 61.1413 262.535 60.0507 266 57.8694Z" fill="#339797"/>
<path fill-rule="evenodd" clip-rule="evenodd" d="M307.097 52.6638H303.184V62.176H307.305C309.592 62.176 311.143 61.9909 311.96 61.6294C312.777 61.2635 313.432 60.6951 313.927 59.9199C314.421 59.149 314.672 58.3171 314.672 57.4329C314.672 56.5139 314.408 55.6777 313.886 54.9177C313.362 54.1598 312.62 53.5936 311.659 53.2213C310.695 52.8489 309.174 52.6638 307.097 52.6638ZM306.781 39.8219H303.184V48.8397H305.966C308.198 48.8397 309.785 48.402 310.727 47.5309C311.667 46.6577 312.138 45.5274 312.138 44.1381C312.138 41.2613 310.354 39.8219 306.781 39.8219ZM308.896 66H299V36H306.658C309.07 36 310.954 36.3332 312.306 36.9974C313.659 37.6638 314.693 38.5806 315.401 39.7456C316.114 40.9129 316.469 42.2652 316.469 43.794C316.469 46.7426 314.983 48.855 312.015 50.1311C314.147 50.5427 315.847 51.4464 317.107 52.8336C318.37 54.223 319 55.8846 319 57.8162C319 59.3493 318.618 60.7169 317.85 61.919C317.086 63.1211 315.957 64.101 314.472 64.8611C312.985 65.6167 311.128 66 308.896 66Z" fill="#339797"/>
<path fill-rule="evenodd" clip-rule="evenodd" d="M338.96 53.3582L334.182 42.5548L329.748 53.3582H338.96ZM332.729 36H335.711L349 66H344.659L340.709 57.1585H328.063L324.361 66H320L332.729 36Z" fill="#339797"/>
<mask id="mask0_3_1937" style="mask-type:luminance" maskUnits="userSpaceOnUse" x="263" y="0" width="52" height="66">
<path fill-rule="evenodd" clip-rule="evenodd" d="M263 0H315V66H263V0Z" fill="white"/>
</mask>
<g mask="url(#mask0_3_1937)">
<path fill-rule="evenodd" clip-rule="evenodd" d="M300.566 15.453C304.014 8.4342 315 14.0656 315 14.0656C315 14.0656 310.074 2.57189 299.613 7.30144C301.191 1.66569 305.711 0.435832 305.711 0.435832C304.648 0.12729 295.379 -2.29574 288.601 8.72979C286.212 3.31844 281.153 1.56643 278.477 1.4305L271.628 1.08312C271.628 1.08312 279.024 3.15014 280.751 7.48484C276.949 6.94758 273.234 9.97259 273.234 9.97259C273.234 9.97259 278.028 9.67052 280.018 12.7862C262.586 8.84631 263.001 26.1786 263.001 26.1786C263.001 26.1786 266.634 17.9925 274.015 18.8944C266.287 22.0295 270.74 33.2924 270.74 33.2924C270.74 33.2924 272.619 22.1266 278.592 23.6412C274.115 31.1498 281.619 39.94 281.619 39.94C281.619 39.94 281.038 26.649 285.658 24.4417C289.838 23.5571 290.498 32.0927 290.587 35.9376V52.8082C290.587 55.1471 290.402 56.7998 290.033 57.7664C289.66 58.7309 289.055 59.5681 288.215 60.2758C286.615 61.5963 284.547 62.2543 282.008 62.2543C280.222 62.2543 278.672 61.9264 277.364 61.2661C276.051 60.6059 275.072 59.732 274.429 58.6381C273.789 57.5464 273.47 55.6023 273.47 52.8082V36.2375H269.167V52.7672C269.167 55.1622 269.329 56.9228 269.648 58.0426C269.97 59.1646 270.375 60.1118 270.868 60.8842C271.361 61.6567 271.962 62.3536 272.676 62.9771C275.028 64.9924 278.154 66 282.049 66C285.871 66 288.968 64.9881 291.338 62.9577C292.05 62.3471 292.653 61.6567 293.146 60.8842C293.636 60.1118 294.051 59.143 294.387 57.9779C294.721 56.8171 294.888 55.091 294.888 52.8082V35.9376C295.032 27.3049 293.81 23.8462 293.81 23.8462C296.125 23.1536 301.564 26.6468 302.925 32.9558C303.174 32.3818 306.638 25.7492 302.13 21.8008C307.797 21.8008 311.877 26.3081 311.877 26.3081C311.877 26.3081 312.331 17.1834 300.566 15.453Z" fill="#339797"/>
</g>
<mask id="mask1_3_1937" style="mask-type:luminance" maskUnits="userSpaceOnUse" x="351" y="36" width="28" height="30">
<path fill-rule="evenodd" clip-rule="evenodd" d="M351 36H379V66H351V36Z" fill="white"/>
</mask>
<g mask="url(#mask1_3_1937)">
<path fill-rule="evenodd" clip-rule="evenodd" d="M376.235 36L365.019 49.4997L353.819 36.1041L353.734 36H351V66.0009H353.889V40.4218L365.008 53.824L376.091 40.424V66.0009H379V36H376.235Z" fill="#339797"/>
</g>
<path fill-rule="evenodd" clip-rule="evenodd" d="M399.3 53.4438H387.678L393.478 40.6564L399.3 53.4438ZM394.377 36.1664L394.301 36H392.702L379 66H381.985L386.567 55.8984H400.42L405.013 66H408L394.377 36.1664Z" fill="#339797"/>
<path fill-rule="evenodd" clip-rule="evenodd" d="M424.808 50.6269L437.285 36H433.708L422.989 48.507L412.253 36H408.676L421.16 50.6442L408 66H411.579L422.991 52.684L434.419 66H438L424.808 50.6269Z" fill="#339797"/>
<mask id="mask2_3_1937" style="mask-type:luminance" maskUnits="userSpaceOnUse" x="0" y="35" width="22" height="30">
<path fill-rule="evenodd" clip-rule="evenodd" d="M0 35H22V65H0V35Z" fill="white"/>
</mask>
<g mask="url(#mask2_3_1937)">
<path fill-rule="evenodd" clip-rule="evenodd" d="M4.66588 63.9446C2.6519 63.2432 1.09652 62.3173 -0.000244141 61.1647L1.22415 58.7626C2.2928 59.8309 3.71621 60.6942 5.49008 61.3547C7.26177 62.013 9.09188 62.3432 10.9782 62.3432C13.626 62.3432 15.6097 61.8619 16.9336 60.8906C18.2554 59.9216 18.9173 58.6633 18.9173 57.118C18.9173 55.9417 18.5582 54.9986 17.8422 54.2971C17.124 53.5978 16.2414 53.0561 15.2031 52.6741C14.1604 52.2942 12.711 51.8799 10.8528 51.4331C8.62678 50.8698 6.85508 50.3281 5.53118 49.8122C4.20727 49.2878 3.07589 48.4957 2.13272 47.4317C1.18954 46.3612 0.717954 44.9151 0.717954 43.0914C0.717954 41.6 1.1095 40.2446 1.89909 39.0252C2.68867 37.8036 3.89793 36.8281 5.53118 36.0964C7.16443 35.3647 9.19139 35 11.6121 35C13.3016 35 14.9543 35.2309 16.5746 35.6971C18.1927 36.1568 19.5923 36.7978 20.7756 37.6115L19.7199 40.0978C18.4804 39.2842 17.1586 38.6734 15.7504 38.2676C14.3421 37.8597 12.9641 37.6568 11.6121 37.6568C9.02266 37.6568 7.07357 38.1532 5.76264 39.1504C4.45388 40.1496 3.80058 41.4338 3.80058 43.005C3.80058 44.1856 4.15968 45.1331 4.87571 45.8496C5.59607 46.5662 6.49599 47.1144 7.57977 47.4921C8.66356 47.8719 10.1194 48.2863 11.9495 48.7353C14.1171 49.2705 15.8693 49.795 17.2062 50.3173C18.5453 50.8353 19.6788 51.6209 20.6068 52.6741C21.5349 53.7252 22 55.154 22 56.954C22 58.441 21.5998 59.7942 20.7972 61.018C19.9946 62.2374 18.7616 63.2065 17.1024 63.923C15.441 64.6417 13.3989 65 10.9782 65C8.78254 65 6.6777 64.646 4.66588 63.9446Z" fill="#339797"/>
</g>
<path fill-rule="evenodd" clip-rule="evenodd" d="M50 62.3474V65H29V36H49.3632V38.6526H32.1385V48.9679H47.4983V51.5759H32.1385V62.3474H50Z" fill="#339797"/>
<path fill-rule="evenodd" clip-rule="evenodd" d="M74.989 51.2852C76.5638 50.0162 77.3512 48.2336 77.3512 45.9418C77.3512 43.5927 76.5638 41.7932 74.989 40.537C73.4142 39.2828 71.14 38.6526 68.162 38.6526H60.176V53.1929H68.162C71.14 53.1929 73.4142 52.5563 74.989 51.2852ZM77.5227 65L70.6518 55.6778C69.8798 55.7585 69.0792 55.8009 68.25 55.8009H60.176V65H57V36H68.25C72.0836 36 75.0902 36.8828 77.2654 38.6526C79.4384 40.4202 80.5271 42.8479 80.5271 45.9418C80.5271 48.2039 79.9333 50.118 78.7456 51.6777C77.5579 53.2374 75.8622 54.3664 73.6584 55.0561L81 65H77.5227Z" fill="#339797"/>
<path fill-rule="evenodd" clip-rule="evenodd" d="M112 36L99.0263 65H95.9715L83 36H86.3485L97.5622 61.1845L108.862 36H112Z" fill="#339797"/>
<mask id="mask3_3_1937" style="mask-type:luminance" maskUnits="userSpaceOnUse" x="0" y="0" width="438" height="66">
<path fill-rule="evenodd" clip-rule="evenodd" d="M0 66H438V0H0V66Z" fill="white"/>
</mask>
<g mask="url(#mask3_3_1937)">
<path fill-rule="evenodd" clip-rule="evenodd" d="M116 65H119V36H116V65Z" fill="#339797"/>
<path fill-rule="evenodd" clip-rule="evenodd" d="M133.45 63.0597C131.126 61.7669 129.305 59.9799 127.984 57.6878C126.663 55.4 126 52.8381 126 50C126 47.1597 126.663 44.5978 127.984 42.3122C129.305 40.018 131.135 38.2331 133.472 36.9381C135.808 35.6453 138.423 35 141.317 35C143.487 35 145.49 35.3647 147.325 36.0964C149.163 36.8281 150.719 37.8942 152 39.295L150.04 41.2763C147.756 38.9453 144.877 37.7799 141.401 37.7799C139.09 37.7799 136.99 38.3151 135.099 39.3813C133.207 40.4475 131.725 41.9108 130.654 43.7626C129.583 45.6165 129.046 47.695 129.046 50C129.046 52.3029 129.583 54.3813 130.654 56.2353C131.725 58.0871 133.207 59.5504 135.099 60.6144C136.99 61.6849 139.09 62.2201 141.401 62.2201C144.905 62.2201 147.786 61.0374 150.04 58.6784L152 60.6597C150.719 62.0626 149.155 63.1353 147.305 63.882C145.456 64.6266 143.444 65 141.275 65C138.382 65 135.774 64.3525 133.45 63.0597Z" fill="#339797"/>
<path fill-rule="evenodd" clip-rule="evenodd" d="M159 65H162V36H159V65Z" fill="#339797"/>
<path fill-rule="evenodd" clip-rule="evenodd" d="M190.848 60.6381C192.73 59.587 194.207 58.1216 195.277 56.2568C196.344 54.3899 196.878 52.3029 196.878 50C196.878 47.695 196.344 45.6079 195.277 43.7432C194.207 41.8763 192.73 40.4129 190.848 39.3597C188.964 38.3086 186.855 37.7799 184.522 37.7799C182.186 37.7799 180.071 38.3086 178.174 39.3597C176.277 40.4129 174.784 41.8763 173.704 43.7432C172.621 45.6079 172.079 47.695 172.079 50C172.079 52.3029 172.621 54.3899 173.704 56.2568C174.784 58.1216 176.277 59.587 178.174 60.6381C180.071 61.6892 182.186 62.2201 184.522 62.2201C186.855 62.2201 188.964 61.6892 190.848 60.6381ZM176.571 63.0381C174.194 61.7324 172.34 59.941 171.003 57.6662C169.668 55.3914 169 52.8381 169 50C169 47.1597 169.668 44.6065 171.003 42.3295C172.34 40.0547 174.194 38.2676 176.571 36.9597C178.947 35.6518 181.596 35 184.522 35C187.445 35 190.081 35.6453 192.429 36.9381C194.778 38.2331 196.625 40.018 197.976 42.3122C199.326 44.5978 200 47.1597 200 50C200 52.8381 199.326 55.4 197.976 57.6878C196.625 59.9799 194.778 61.7669 192.429 63.0597C190.081 64.3525 187.445 65 184.522 65C181.596 65 178.947 64.346 176.571 63.0381Z" fill="#339797"/>
<path fill-rule="evenodd" clip-rule="evenodd" d="M208.666 63.9446C206.652 63.2432 205.097 62.3173 204 61.1647L205.224 58.7626C206.293 59.8309 207.716 60.6942 209.49 61.3547C211.262 62.013 213.092 62.3432 214.978 62.3432C217.626 62.3432 219.61 61.8619 220.934 60.8906C222.255 59.9216 222.917 58.6633 222.917 57.118C222.917 55.9417 222.558 54.9986 221.842 54.2971C221.124 53.5978 220.241 53.0561 219.203 52.6741C218.16 52.2942 216.711 51.8799 214.853 51.4331C212.627 50.8698 210.855 50.3281 209.531 49.8122C208.207 49.2878 207.076 48.4957 206.133 47.4317C205.19 46.3612 204.718 44.9151 204.718 43.0914C204.718 41.6 205.11 40.2446 205.899 39.0252C206.689 37.8036 207.898 36.8281 209.531 36.0964C211.165 35.3647 213.192 35 215.612 35C217.302 35 218.954 35.2309 220.575 35.6971C222.193 36.1568 223.592 36.7978 224.776 37.6115L223.72 40.0978C222.48 39.2842 221.159 38.6734 219.75 38.2676C218.342 37.8597 216.964 37.6568 215.612 37.6568C213.023 37.6568 211.072 38.1532 209.763 39.1504C208.454 40.1496 207.801 41.4338 207.801 43.005C207.801 44.1856 208.16 45.1331 208.876 45.8496C209.596 46.5662 210.496 47.1144 211.58 47.4921C212.664 47.8719 214.12 48.2863 215.95 48.7353C218.117 49.2705 219.869 49.795 221.206 50.3173C222.545 50.8353 223.679 51.6209 224.607 52.6741C225.535 53.7252 226 55.154 226 56.954C226 58.441 225.6 59.7942 224.797 61.018C223.995 62.2374 222.762 63.2065 221.102 63.923C219.441 64.6417 217.399 65 214.978 65C212.783 65 210.678 64.646 208.666 63.9446Z" fill="#339797"/>
</g>
</svg>
