<svg width="816" height="89" viewBox="0 0 816 89" fill="none" xmlns="http://www.w3.org/2000/svg">
<path fill-rule="evenodd" clip-rule="evenodd" d="M304 72.969V78.8133C300.152 80.9395 295.709 82 290.673 82C286.58 82 283.109 81.1691 280.262 79.5049C277.407 77.8406 275.154 75.5493 273.493 72.6258C271.831 69.7049 271 66.5466 271 63.1458C271 57.7452 272.899 53.2039 276.704 49.5218C280.506 45.8398 285.201 44 290.778 44C294.623 44 298.9 45.0141 303.608 47.0499V52.7627C299.321 50.283 295.131 49.0445 291.04 49.0445C286.845 49.0445 283.358 50.3836 280.588 53.0672C277.818 55.7507 276.431 59.1102 276.431 63.1458C276.431 67.2175 277.795 70.5641 280.522 73.1831C283.249 75.8047 286.738 77.1155 290.989 77.1155C295.429 77.1155 299.764 75.7325 304 72.969Z" fill="#349898"/>
<path fill-rule="evenodd" clip-rule="evenodd" d="M355.12 65.5521H350.229V77.2833H355.38C358.238 77.2833 360.179 77.0569 361.198 76.6092C362.22 76.1563 363.04 75.4564 363.658 74.5017C364.278 73.5496 364.588 72.5255 364.588 71.4319C364.588 70.2997 364.26 69.2704 363.607 68.3337C362.952 67.3971 362.024 66.6972 360.822 66.2417C359.618 65.7811 357.715 65.5521 355.12 65.5521ZM354.727 49.7141H350.229V60.8355H353.705C356.498 60.8355 358.48 60.2977 359.659 59.2221C360.835 58.1439 361.422 56.7492 361.422 55.038C361.422 51.487 359.191 49.7141 354.727 49.7141ZM357.369 82H345V45H354.572C357.588 45 359.941 45.4117 361.633 46.23C363.322 47.0534 364.616 48.183 365.503 49.6215C366.392 51.0599 366.834 52.7273 366.834 54.6135C366.834 58.2494 364.979 60.856 361.267 62.4283C363.932 62.9352 366.057 64.0494 367.634 65.7606C369.212 67.4743 370 69.5226 370 71.9053C370 73.7966 369.52 75.4847 368.559 76.9668C367.606 78.449 366.196 79.6584 364.339 80.595C362.481 81.5291 360.159 82 357.369 82Z" fill="#349898"/>
<path fill-rule="evenodd" clip-rule="evenodd" d="M394.536 66.4079L388.605 53.0852L383.101 66.4079H394.536ZM386.801 45H390.503L407 82H401.611L396.706 71.0952H381.008L376.412 82H371L386.801 45Z" fill="#349898"/>
<mask id="mask0_1_534" style="mask-type:luminance" maskUnits="userSpaceOnUse" x="300" y="0" width="64" height="82">
<path fill-rule="evenodd" clip-rule="evenodd" d="M300 0H364V82H300V0Z" fill="white"/>
</mask>
<g mask="url(#mask0_1_534)">
<path fill-rule="evenodd" clip-rule="evenodd" d="M346.234 19.1992C350.478 10.4775 364 17.4759 364 17.4759C364 17.4759 357.937 3.1966 345.062 9.07269C347.005 2.06915 352.568 0.543628 352.568 0.543628C351.258 0.158395 339.852 -2.85156 331.507 10.8473C328.569 4.12373 322.342 1.94588 319.049 1.77894L310.616 1.34748C310.616 1.34748 319.719 3.9157 321.846 9.2987C317.168 8.63353 312.595 12.3908 312.595 12.3908C312.595 12.3908 318.493 12.0159 320.942 15.8862C299.489 10.9912 300.001 32.5257 300.001 32.5257C300.001 32.5257 304.469 22.353 313.554 23.4753C304.045 27.3687 309.526 41.363 309.526 41.363C309.526 41.363 311.837 27.492 319.187 29.3719C313.68 38.6997 322.916 49.6224 322.916 49.6224C322.916 49.6224 322.202 33.1113 327.885 30.3658C333.032 29.2666 333.843 39.8734 333.953 44.6477V65.6095C333.953 68.5168 333.725 70.5688 333.27 71.7681C332.812 72.9675 332.067 74.0076 331.031 74.886C329.063 76.5271 326.516 77.3438 323.394 77.3438C321.196 77.3438 319.289 76.938 317.677 76.1161C316.062 75.2969 314.857 74.2105 314.066 72.8545C313.278 71.4959 312.884 69.0818 312.884 65.6095V45.0227H307.589V65.5582C307.589 68.5347 307.789 70.7203 308.18 72.1123C308.577 73.5068 309.076 74.6831 309.682 75.6436C310.289 76.6041 311.028 77.4696 311.909 78.2452C314.803 80.7466 318.65 81.9999 323.443 81.9999C328.149 81.9999 331.96 80.7415 334.877 78.2195C335.752 77.4593 336.497 76.6041 337.101 75.6436C337.707 74.6831 338.217 73.4786 338.629 72.0327C339.041 70.5893 339.245 68.4474 339.245 65.6095V44.6477C339.422 33.9228 337.92 29.6287 337.92 29.6287C340.768 28.7658 347.463 33.1061 349.137 40.9443C349.446 40.2304 353.707 31.9915 348.161 27.0862C355.135 27.0862 360.156 32.6849 360.156 32.6849C360.156 32.6849 360.714 21.3488 346.234 19.1992Z" fill="#349898"/>
</g>
<path fill-rule="evenodd" clip-rule="evenodd" d="M440.644 45L427.023 61.6486L413.425 45.1281L413.321 45H410V82H413.509V50.453L427.01 66.9812L440.468 50.4556V82H444V45H440.644Z" fill="#319898"/>
<path fill-rule="evenodd" clip-rule="evenodd" d="M469.2 66.5142H454.772L461.973 50.7424L469.2 66.5142ZM463.088 45.2043L462.992 45H461.008L444 82H447.705L453.393 69.5399H470.592L476.292 82H480L463.088 45.2043Z" fill="#319898"/>
<path fill-rule="evenodd" clip-rule="evenodd" d="M500.289 63.0399L516.091 45H511.564L497.987 60.4277L484.389 45H479.857L495.669 63.0604L479 82H483.534L497.99 65.5754L512.463 82H517L500.289 63.0399Z" fill="#319898"/>
<path d="M128.111 80C127.151 80.19 126.201 80.265 125.261 80.225C124.331 80.195 123.501 80.01 122.771 79.67C122.041 79.32 121.486 78.78 121.106 78.05C120.786 77.41 120.611 76.765 120.581 76.115C120.561 75.455 120.551 74.71 120.551 73.88V59.3H123.221V73.76C123.221 74.42 123.226 74.985 123.236 75.455C123.256 75.925 123.361 76.33 123.551 76.67C123.911 77.31 124.481 77.685 125.261 77.795C126.051 77.905 127.001 77.875 128.111 77.705V80ZM117.266 66.005V63.8H128.111V66.005H117.266ZM132.7 80V63.8H135.085V67.715L134.695 67.205C134.885 66.705 135.13 66.245 135.43 65.825C135.74 65.405 136.085 65.06 136.465 64.79C136.885 64.45 137.36 64.19 137.89 64.01C138.42 63.83 138.96 63.725 139.51 63.695C140.06 63.655 140.575 63.69 141.055 63.8V66.305C140.495 66.155 139.88 66.115 139.21 66.185C138.54 66.255 137.92 66.5 137.35 66.92C136.83 67.29 136.425 67.74 136.135 68.27C135.855 68.8 135.66 69.375 135.55 69.995C135.44 70.605 135.385 71.23 135.385 71.87V80H132.7ZM149.269 80.45C148.059 80.45 147.044 80.23 146.224 79.79C145.414 79.34 144.799 78.75 144.379 78.02C143.969 77.29 143.764 76.49 143.764 75.62C143.764 74.77 143.924 74.035 144.244 73.415C144.574 72.785 145.034 72.265 145.624 71.855C146.214 71.435 146.919 71.105 147.739 70.865C148.509 70.655 149.369 70.475 150.319 70.325C151.279 70.165 152.249 70.02 153.229 69.89C154.209 69.76 155.124 69.635 155.974 69.515L155.014 70.07C155.044 68.63 154.754 67.565 154.144 66.875C153.544 66.185 152.504 65.84 151.024 65.84C150.044 65.84 149.184 66.065 148.444 66.515C147.714 66.955 147.199 67.675 146.899 68.675L144.364 67.91C144.754 66.49 145.509 65.375 146.629 64.565C147.749 63.755 149.224 63.35 151.054 63.35C152.524 63.35 153.784 63.615 154.834 64.145C155.894 64.665 156.654 65.455 157.114 66.515C157.344 67.015 157.489 67.56 157.549 68.15C157.609 68.73 157.639 69.34 157.639 69.98V80H155.269V76.115L155.824 76.475C155.214 77.785 154.359 78.775 153.259 79.445C152.169 80.115 150.839 80.45 149.269 80.45ZM149.674 78.215C150.634 78.215 151.464 78.045 152.164 77.705C152.874 77.355 153.444 76.9 153.874 76.34C154.304 75.77 154.584 75.15 154.714 74.48C154.864 73.98 154.944 73.425 154.954 72.815C154.974 72.195 154.984 71.72 154.984 71.39L155.914 71.795C155.044 71.915 154.189 72.03 153.349 72.14C152.509 72.25 151.714 72.37 150.964 72.5C150.214 72.62 149.539 72.765 148.939 72.935C148.499 73.075 148.084 73.255 147.694 73.475C147.314 73.695 147.004 73.98 146.764 74.33C146.534 74.67 146.419 75.095 146.419 75.605C146.419 76.045 146.529 76.465 146.749 76.865C146.979 77.265 147.329 77.59 147.799 77.84C148.279 78.09 148.904 78.215 149.674 78.215ZM174.374 80V71.885C174.374 71.115 174.304 70.375 174.164 69.665C174.034 68.955 173.799 68.32 173.459 67.76C173.129 67.19 172.679 66.74 172.109 66.41C171.549 66.08 170.839 65.915 169.979 65.915C169.309 65.915 168.699 66.03 168.149 66.26C167.609 66.48 167.144 66.82 166.754 67.28C166.364 67.74 166.059 68.32 165.839 69.02C165.629 69.71 165.524 70.525 165.524 71.465L163.769 70.925C163.769 69.355 164.049 68.01 164.609 66.89C165.179 65.76 165.974 64.895 166.994 64.295C168.024 63.685 169.234 63.38 170.624 63.38C171.674 63.38 172.569 63.545 173.309 63.875C174.049 64.205 174.664 64.645 175.154 65.195C175.644 65.735 176.029 66.345 176.309 67.025C176.589 67.695 176.784 68.38 176.894 69.08C177.014 69.77 177.074 70.425 177.074 71.045V80H174.374ZM162.824 80V63.8H165.224V68.135H165.524V80H162.824ZM188.634 80.45C187.124 80.45 185.829 80.075 184.749 79.325C183.669 78.565 182.834 77.54 182.244 76.25C181.664 74.96 181.374 73.505 181.374 71.885C181.374 70.265 181.664 68.81 182.244 67.52C182.834 66.23 183.669 65.215 184.749 64.475C185.829 63.725 187.119 63.35 188.619 63.35C190.149 63.35 191.434 63.72 192.474 64.46C193.514 65.2 194.299 66.215 194.829 67.505C195.369 68.795 195.639 70.255 195.639 71.885C195.639 73.495 195.369 74.95 194.829 76.25C194.299 77.54 193.514 78.565 192.474 79.325C191.434 80.075 190.154 80.45 188.634 80.45ZM188.964 78.005C190.054 78.005 190.949 77.745 191.649 77.225C192.349 76.695 192.864 75.97 193.194 75.05C193.534 74.12 193.704 73.065 193.704 71.885C193.704 70.685 193.534 69.63 193.194 68.72C192.864 67.8 192.354 67.085 191.664 66.575C190.974 66.055 190.099 65.795 189.039 65.795C187.939 65.795 187.029 66.065 186.309 66.605C185.599 67.145 185.069 67.875 184.719 68.795C184.379 69.715 184.209 70.745 184.209 71.885C184.209 73.035 184.384 74.075 184.734 75.005C185.084 75.925 185.609 76.655 186.309 77.195C187.019 77.735 187.904 78.005 188.964 78.005ZM193.404 87.2V75.725H193.704V63.8H196.089V87.2H193.404ZM207.742 80.42C206.702 80.42 205.807 80.255 205.057 79.925C204.317 79.595 203.702 79.155 203.212 78.605C202.722 78.055 202.337 77.445 202.057 76.775C201.777 76.105 201.577 75.42 201.457 74.72C201.347 74.02 201.292 73.365 201.292 72.755V63.8H203.992V71.915C203.992 72.675 204.062 73.41 204.202 74.12C204.342 74.83 204.577 75.47 204.907 76.04C205.247 76.61 205.697 77.06 206.257 77.39C206.827 77.72 207.537 77.885 208.387 77.885C209.057 77.885 209.667 77.77 210.217 77.54C210.767 77.31 211.237 76.97 211.627 76.52C212.017 76.06 212.317 75.48 212.527 74.78C212.737 74.08 212.842 73.265 212.842 72.335L214.597 72.875C214.597 74.435 214.312 75.78 213.742 76.91C213.182 78.04 212.387 78.91 211.357 79.52C210.337 80.12 209.132 80.42 207.742 80.42ZM213.142 80V75.665H212.842V63.8H215.527V80H213.142ZM221.326 60.935V58.175H223.996V60.935H221.326ZM221.326 80V63.8H223.996V80H221.326ZM230.097 80V57.95H232.767V80H230.097ZM245.468 80.45C243.858 80.45 242.468 80.085 241.298 79.355C240.138 78.625 239.243 77.615 238.613 76.325C237.983 75.035 237.668 73.555 237.668 71.885C237.668 70.185 237.988 68.695 238.628 67.415C239.268 66.135 240.173 65.14 241.343 64.43C242.513 63.71 243.888 63.35 245.468 63.35C247.088 63.35 248.483 63.715 249.653 64.445C250.823 65.165 251.718 66.17 252.338 67.46C252.968 68.74 253.283 70.215 253.283 71.885C253.283 73.575 252.968 75.065 252.338 76.355C251.708 77.635 250.808 78.64 249.638 79.37C248.468 80.09 247.078 80.45 245.468 80.45ZM245.468 77.915C247.148 77.915 248.398 77.355 249.218 76.235C250.038 75.115 250.448 73.665 250.448 71.885C250.448 70.055 250.033 68.6 249.203 67.52C248.373 66.43 247.128 65.885 245.468 65.885C244.338 65.885 243.408 66.14 242.678 66.65C241.948 67.16 241.403 67.865 241.043 68.765C240.683 69.665 240.503 70.705 240.503 71.885C240.503 73.705 240.923 75.165 241.763 76.265C242.603 77.365 243.838 77.915 245.468 77.915ZM541.628 80.435C539.698 80.435 538.113 80.015 536.873 79.175C535.643 78.325 534.888 77.14 534.608 75.62L537.338 75.185C537.558 76.065 538.063 76.765 538.853 77.285C539.643 77.795 540.623 78.05 541.793 78.05C542.903 78.05 543.773 77.82 544.403 77.36C545.033 76.9 545.348 76.275 545.348 75.485C545.348 75.025 545.243 74.655 545.033 74.375C544.823 74.085 544.388 73.815 543.728 73.565C543.078 73.315 542.093 73.015 540.773 72.665C539.343 72.285 538.218 71.89 537.398 71.48C536.578 71.07 535.993 70.595 535.643 70.055C535.293 69.515 535.118 68.86 535.118 68.09C535.118 67.14 535.378 66.31 535.898 65.6C536.418 64.88 537.143 64.325 538.073 63.935C539.013 63.545 540.103 63.35 541.343 63.35C542.573 63.35 543.673 63.545 544.643 63.935C545.613 64.325 546.393 64.88 546.983 65.6C547.583 66.31 547.938 67.14 548.048 68.09L545.318 68.585C545.188 67.715 544.768 67.03 544.058 66.53C543.358 66.03 542.453 65.765 541.343 65.735C540.293 65.695 539.438 65.88 538.778 66.29C538.128 66.7 537.803 67.255 537.803 67.955C537.803 68.345 537.923 68.68 538.163 68.96C538.413 69.24 538.868 69.505 539.528 69.755C540.198 70.005 541.168 70.29 542.438 70.61C543.868 70.97 544.993 71.365 545.813 71.795C546.643 72.215 547.233 72.715 547.583 73.295C547.933 73.865 548.108 74.57 548.108 75.41C548.108 76.97 547.533 78.2 546.383 79.1C545.233 79.99 543.648 80.435 541.628 80.435ZM559.736 80.45C558.146 80.45 556.756 80.1 555.566 79.4C554.386 78.69 553.466 77.705 552.806 76.445C552.146 75.175 551.816 73.695 551.816 72.005C551.816 70.235 552.141 68.705 552.791 67.415C553.441 66.115 554.346 65.115 555.506 64.415C556.676 63.705 558.046 63.35 559.616 63.35C561.246 63.35 562.631 63.725 563.771 64.475C564.921 65.225 565.781 66.295 566.351 67.685C566.931 69.075 567.181 70.73 567.101 72.65H564.401V71.69C564.371 69.7 563.966 68.215 563.186 67.235C562.406 66.245 561.246 65.75 559.706 65.75C558.056 65.75 556.801 66.28 555.941 67.34C555.081 68.4 554.651 69.92 554.651 71.9C554.651 73.81 555.081 75.29 555.941 76.34C556.801 77.39 558.026 77.915 559.616 77.915C560.686 77.915 561.616 77.67 562.406 77.18C563.196 76.69 563.816 75.985 564.266 75.065L566.831 75.95C566.201 77.38 565.251 78.49 563.981 79.28C562.721 80.06 561.306 80.45 559.736 80.45ZM553.751 72.65V70.505H565.721V72.65H553.751ZM586.067 80.45C584.477 80.45 583.087 80.1 581.897 79.4C580.717 78.69 579.797 77.705 579.137 76.445C578.477 75.175 578.147 73.695 578.147 72.005C578.147 70.235 578.472 68.705 579.122 67.415C579.772 66.115 580.677 65.115 581.837 64.415C583.007 63.705 584.377 63.35 585.947 63.35C587.577 63.35 588.962 63.725 590.102 64.475C591.252 65.225 592.112 66.295 592.682 67.685C593.262 69.075 593.512 70.73 593.432 72.65H590.732V71.69C590.702 69.7 590.297 68.215 589.517 67.235C588.737 66.245 587.577 65.75 586.037 65.75C584.387 65.75 583.132 66.28 582.272 67.34C581.412 68.4 580.982 69.92 580.982 71.9C580.982 73.81 581.412 75.29 582.272 76.34C583.132 77.39 584.357 77.915 585.947 77.915C587.017 77.915 587.947 77.67 588.737 77.18C589.527 76.69 590.147 75.985 590.597 75.065L593.162 75.95C592.532 77.38 591.582 78.49 590.312 79.28C589.052 80.06 587.637 80.45 586.067 80.45ZM580.082 72.65V70.505H592.052V72.65H580.082ZM609.167 80V71.885C609.167 71.115 609.097 70.375 608.957 69.665C608.827 68.955 608.592 68.32 608.252 67.76C607.922 67.19 607.472 66.74 606.902 66.41C606.342 66.08 605.632 65.915 604.772 65.915C604.102 65.915 603.492 66.03 602.942 66.26C602.402 66.48 601.937 66.82 601.547 67.28C601.157 67.74 600.852 68.32 600.632 69.02C600.422 69.71 600.317 70.525 600.317 71.465L598.562 70.925C598.562 69.355 598.842 68.01 599.402 66.89C599.972 65.76 600.767 64.895 601.787 64.295C602.817 63.685 604.027 63.38 605.417 63.38C606.467 63.38 607.362 63.545 608.102 63.875C608.842 64.205 609.457 64.645 609.947 65.195C610.437 65.735 610.822 66.345 611.102 67.025C611.382 67.695 611.577 68.38 611.687 69.08C611.807 69.77 611.867 70.425 611.867 71.045V80H609.167ZM597.617 80V63.8H600.017V68.135H600.317V80H597.617ZM623.745 80.45C622.105 80.45 620.71 80.085 619.56 79.355C618.42 78.615 617.55 77.6 616.95 76.31C616.35 75.02 616.04 73.55 616.02 71.9C616.04 70.21 616.355 68.725 616.965 67.445C617.585 66.155 618.47 65.15 619.62 64.43C620.77 63.71 622.155 63.35 623.775 63.35C625.485 63.35 626.955 63.77 628.185 64.61C629.425 65.45 630.255 66.6 630.675 68.06L628.035 68.855C627.695 67.915 627.14 67.185 626.37 66.665C625.61 66.145 624.735 65.885 623.745 65.885C622.635 65.885 621.72 66.145 621 66.665C620.28 67.175 619.745 67.885 619.395 68.795C619.045 69.695 618.865 70.73 618.855 71.9C618.875 73.7 619.29 75.155 620.1 76.265C620.92 77.365 622.135 77.915 623.745 77.915C624.805 77.915 625.685 77.675 626.385 77.195C627.085 76.705 627.615 76 627.975 75.08L630.675 75.785C630.115 77.295 629.24 78.45 628.05 79.25C626.86 80.05 625.425 80.45 623.745 80.45ZM639.495 80.45C638.285 80.45 637.27 80.23 636.45 79.79C635.64 79.34 635.025 78.75 634.605 78.02C634.195 77.29 633.99 76.49 633.99 75.62C633.99 74.77 634.15 74.035 634.47 73.415C634.8 72.785 635.26 72.265 635.85 71.855C636.44 71.435 637.145 71.105 637.965 70.865C638.735 70.655 639.595 70.475 640.545 70.325C641.505 70.165 642.475 70.02 643.455 69.89C644.435 69.76 645.35 69.635 646.2 69.515L645.24 70.07C645.27 68.63 644.98 67.565 644.37 66.875C643.77 66.185 642.73 65.84 641.25 65.84C640.27 65.84 639.41 66.065 638.67 66.515C637.94 66.955 637.425 67.675 637.125 68.675L634.59 67.91C634.98 66.49 635.735 65.375 636.855 64.565C637.975 63.755 639.45 63.35 641.28 63.35C642.75 63.35 644.01 63.615 645.06 64.145C646.12 64.665 646.88 65.455 647.34 66.515C647.57 67.015 647.715 67.56 647.775 68.15C647.835 68.73 647.865 69.34 647.865 69.98V80H645.495V76.115L646.05 76.475C645.44 77.785 644.585 78.775 643.485 79.445C642.395 80.115 641.065 80.45 639.495 80.45ZM639.9 78.215C640.86 78.215 641.69 78.045 642.39 77.705C643.1 77.355 643.67 76.9 644.1 76.34C644.53 75.77 644.81 75.15 644.94 74.48C645.09 73.98 645.17 73.425 645.18 72.815C645.2 72.195 645.21 71.72 645.21 71.39L646.14 71.795C645.27 71.915 644.415 72.03 643.575 72.14C642.735 72.25 641.94 72.37 641.19 72.5C640.44 72.62 639.765 72.765 639.165 72.935C638.725 73.075 638.31 73.255 637.92 73.475C637.54 73.695 637.23 73.98 636.99 74.33C636.76 74.67 636.645 75.095 636.645 75.605C636.645 76.045 636.755 76.465 636.975 76.865C637.205 77.265 637.555 77.59 638.025 77.84C638.505 78.09 639.13 78.215 639.9 78.215ZM653.065 80V63.8H655.45V67.715L655.06 67.205C655.25 66.705 655.495 66.245 655.795 65.825C656.105 65.405 656.45 65.06 656.83 64.79C657.25 64.45 657.725 64.19 658.255 64.01C658.785 63.83 659.325 63.725 659.875 63.695C660.425 63.655 660.94 63.69 661.42 63.8V66.305C660.86 66.155 660.245 66.115 659.575 66.185C658.905 66.255 658.285 66.5 657.715 66.92C657.195 67.29 656.79 67.74 656.5 68.27C656.22 68.8 656.025 69.375 655.915 69.995C655.805 70.605 655.75 71.23 655.75 71.87V80H653.065ZM671.525 87.65C670.675 87.65 669.845 87.52 669.035 87.26C668.225 87 667.48 86.605 666.8 86.075C666.13 85.555 665.57 84.895 665.12 84.095L667.565 82.805C667.965 83.595 668.53 84.17 669.26 84.53C670 84.89 670.76 85.07 671.54 85.07C672.57 85.07 673.425 84.88 674.105 84.5C674.785 84.13 675.285 83.575 675.605 82.835C675.935 82.095 676.095 81.175 676.085 80.075V75.65H676.4V63.8H678.77V80.105C678.77 80.545 678.755 80.97 678.725 81.38C678.705 81.79 678.655 82.195 678.575 82.595C678.365 83.745 677.95 84.69 677.33 85.43C676.71 86.18 675.91 86.735 674.93 87.095C673.95 87.465 672.815 87.65 671.525 87.65ZM671.33 80.45C669.82 80.45 668.525 80.075 667.445 79.325C666.365 78.565 665.53 77.54 664.94 76.25C664.36 74.96 664.07 73.505 664.07 71.885C664.07 70.265 664.36 68.81 664.94 67.52C665.53 66.23 666.365 65.215 667.445 64.475C668.525 63.725 669.815 63.35 671.315 63.35C672.845 63.35 674.13 63.72 675.17 64.46C676.21 65.2 676.995 66.215 677.525 67.505C678.065 68.795 678.335 70.255 678.335 71.885C678.335 73.495 678.065 74.95 677.525 76.25C676.995 77.54 676.21 78.565 675.17 79.325C674.13 80.075 672.85 80.45 671.33 80.45ZM671.66 78.005C672.75 78.005 673.645 77.745 674.345 77.225C675.045 76.695 675.56 75.97 675.89 75.05C676.23 74.12 676.4 73.065 676.4 71.885C676.4 70.685 676.23 69.63 675.89 68.72C675.56 67.8 675.05 67.085 674.36 66.575C673.67 66.055 672.795 65.795 671.735 65.795C670.635 65.795 669.725 66.065 669.005 66.605C668.295 67.145 667.765 67.875 667.415 68.795C667.075 69.715 666.905 70.745 666.905 71.885C666.905 73.035 667.08 74.075 667.43 75.005C667.78 75.925 668.305 76.655 669.005 77.195C669.715 77.735 670.6 78.005 671.66 78.005ZM688.864 80.45C687.654 80.45 686.639 80.23 685.819 79.79C685.009 79.34 684.394 78.75 683.974 78.02C683.564 77.29 683.359 76.49 683.359 75.62C683.359 74.77 683.519 74.035 683.839 73.415C684.169 72.785 684.629 72.265 685.219 71.855C685.809 71.435 686.514 71.105 687.334 70.865C688.104 70.655 688.964 70.475 689.914 70.325C690.874 70.165 691.844 70.02 692.824 69.89C693.804 69.76 694.719 69.635 695.569 69.515L694.609 70.07C694.639 68.63 694.349 67.565 693.739 66.875C693.139 66.185 692.099 65.84 690.619 65.84C689.639 65.84 688.779 66.065 688.039 66.515C687.309 66.955 686.794 67.675 686.494 68.675L683.959 67.91C684.349 66.49 685.104 65.375 686.224 64.565C687.344 63.755 688.819 63.35 690.649 63.35C692.119 63.35 693.379 63.615 694.429 64.145C695.489 64.665 696.249 65.455 696.709 66.515C696.939 67.015 697.084 67.56 697.144 68.15C697.204 68.73 697.234 69.34 697.234 69.98V80H694.864V76.115L695.419 76.475C694.809 77.785 693.954 78.775 692.854 79.445C691.764 80.115 690.434 80.45 688.864 80.45ZM689.269 78.215C690.229 78.215 691.059 78.045 691.759 77.705C692.469 77.355 693.039 76.9 693.469 76.34C693.899 75.77 694.179 75.15 694.309 74.48C694.459 73.98 694.539 73.425 694.549 72.815C694.569 72.195 694.579 71.72 694.579 71.39L695.509 71.795C694.639 71.915 693.784 72.03 692.944 72.14C692.104 72.25 691.309 72.37 690.559 72.5C689.809 72.62 689.134 72.765 688.534 72.935C688.094 73.075 687.679 73.255 687.289 73.475C686.909 73.695 686.599 73.98 686.359 74.33C686.129 74.67 686.014 75.095 686.014 75.605C686.014 76.045 686.124 76.465 686.344 76.865C686.574 77.265 686.924 77.59 687.394 77.84C687.874 78.09 688.499 78.215 689.269 78.215Z" fill="#349898"/>
</svg>
