<svg width="446" height="69" viewBox="0 0 446 69" fill="none" xmlns="http://www.w3.org/2000/svg">
<path fill-rule="evenodd" clip-rule="evenodd" d="M269 60.6315V65.3988C265.733 67.1322 261.965 68 257.694 68C254.221 68 251.274 67.3199 248.858 65.9619C246.438 64.6061 244.525 62.7358 243.117 60.3532C241.706 57.9684 241 55.3916 241 52.6181C241 48.2129 242.613 44.5077 245.839 41.5046C249.067 38.4993 253.05 37 257.782 37C261.044 37 264.674 37.8281 268.667 39.4886V44.1477C265.03 42.1251 261.475 41.1138 258.005 41.1138C254.445 41.1138 251.487 42.209 249.135 44.3973C246.785 46.5855 245.607 49.3258 245.607 52.6181C245.607 55.9392 246.767 58.6706 249.08 60.8059C251.392 62.9434 254.355 64.0143 257.962 64.0143C261.729 64.0143 265.407 62.886 269 60.6315Z" fill="#339797"/>
<path fill-rule="evenodd" clip-rule="evenodd" d="M311.502 55.22H307.393V65.049H311.721C314.121 65.049 315.751 64.859 316.607 64.4835C317.466 64.1059 318.154 63.5178 318.673 62.7195C319.193 61.9211 319.455 61.0617 319.455 60.148C319.455 59.1981 319.179 58.3342 318.629 57.5494C318.08 56.7669 317.301 56.1789 316.291 55.7967C315.281 55.4099 313.682 55.22 311.502 55.22ZM311.17 41.951H307.393V51.2689H310.313C312.657 51.2689 314.323 50.8166 315.313 49.9165C316.302 49.0141 316.795 47.8448 316.795 46.411C316.795 43.4369 314.921 41.951 311.17 41.951ZM313.391 69H303V38H311.04C313.573 38 315.552 38.346 316.972 39.0313C318.391 39.7211 319.477 40.6664 320.223 41.8719C320.971 43.0773 321.342 44.475 321.342 46.0559C321.342 49.1023 319.784 51.2847 316.665 52.601C318.904 53.0285 320.688 53.9625 322.014 55.3964C323.339 56.8302 324 58.5468 324 60.5438C324 62.1269 323.597 63.5405 322.791 64.7843C321.989 66.026 320.805 67.0392 319.247 67.8217C317.684 68.6065 315.733 69 313.391 69Z" fill="#339797"/>
<path fill-rule="evenodd" clip-rule="evenodd" d="M343.614 55.9366L338.67 44.7734L334.084 55.9366H343.614ZM337.169 38H340.254L354 69H349.508L345.423 59.8653H332.339L328.51 69H324L337.169 38Z" fill="#339797"/>
<mask id="mask0_3_1975" style="mask-type:luminance" maskUnits="userSpaceOnUse" x="266" y="0" width="53" height="68">
<path fill-rule="evenodd" clip-rule="evenodd" d="M266 0H319V68H266V0Z" fill="white"/>
</mask>
<g mask="url(#mask0_3_1975)">
<path fill-rule="evenodd" clip-rule="evenodd" d="M304.287 15.9229C307.802 8.69083 319 14.4931 319 14.4931C319 14.4931 313.978 2.65177 303.316 7.52457C304.925 1.71788 309.532 0.451083 309.532 0.451083C308.447 0.131592 299.001 -2.36401 292.091 8.99691C289.659 3.42257 284.502 1.6151 281.774 1.47658L274.793 1.11911C274.793 1.11911 282.332 3.24831 284.093 7.71224C280.218 7.1604 276.43 10.2749 276.43 10.2749C276.43 10.2749 281.316 9.96656 283.346 13.1749C265.578 9.11756 266.001 26.9733 266.001 26.9733C266.001 26.9733 269.702 18.5392 277.225 19.4686C269.351 22.697 273.891 34.3037 273.891 34.3037C273.891 34.3037 275.805 22.7998 281.892 24.3593C277.33 32.0941 284.977 41.1516 284.977 41.1516C284.977 41.1516 284.386 27.4581 289.092 25.1837C293.354 24.2722 294.028 33.0682 294.117 37.0272V54.4093C294.117 56.82 293.928 58.5225 293.552 59.5167C293.174 60.5109 292.556 61.3734 291.698 62.1039C290.068 63.4646 287.961 64.1415 285.373 64.1415C283.552 64.1415 281.974 63.8042 280.64 63.1227C279.302 62.4435 278.304 61.5431 277.65 60.4171C276.996 59.2911 276.672 57.2892 276.672 54.4093V37.3378H272.286V54.3669C272.286 56.8357 272.45 58.6476 272.775 59.8027C273.104 60.9578 273.517 61.9341 274.02 62.7317C274.52 63.5271 275.133 64.2443 275.863 64.8877C278.259 66.9633 281.445 68 285.415 68C289.31 68 292.467 66.9566 294.881 64.8676C295.608 64.2354 296.224 63.5271 296.724 62.7317C297.225 61.9341 297.647 60.9354 297.989 59.7357C298.329 58.5404 298.501 56.762 298.501 54.4093V37.0272C298.647 28.1329 297.402 24.5715 297.402 24.5715C299.761 23.8566 305.306 27.4559 306.691 33.9552C306.946 33.3631 310.477 26.5309 305.881 22.4647C311.657 22.4647 315.814 27.1074 315.814 27.1074C315.814 27.1074 316.277 17.7058 304.287 15.9229Z" fill="#339797"/>
</g>
<path fill-rule="evenodd" clip-rule="evenodd" d="M381.236 38L370.02 51.9482L358.821 38.1081L358.733 38H356V69H358.889V42.5698L370.009 56.4167L381.092 42.5721V69H384V38H381.236Z" fill="#339797"/>
<path fill-rule="evenodd" clip-rule="evenodd" d="M406 56.0256H393.978L399.979 42.8132L406 56.0256ZM400.906 38.1728L400.827 38H399.173L385 69H388.088L392.826 58.5612H407.158L411.91 69H415L400.906 38.1728Z" fill="#339797"/>
<path fill-rule="evenodd" clip-rule="evenodd" d="M432.368 53.1136L445.26 38H441.565L430.491 50.9234L419.397 38H415.7L428.599 53.1316L415 69H418.699L430.491 55.2387L442.299 69H446L432.368 53.1136Z" fill="#339797"/>
<path fill-rule="evenodd" clip-rule="evenodd" d="M0 38H3.17534V65.2551H20V68H0V38Z" fill="#339797"/>
<path fill-rule="evenodd" clip-rule="evenodd" d="M43.7827 57.4145L36.481 41.2968L29.1747 57.4145H43.7827ZM44.9579 59.9853H28.0018L24.3487 68H21L34.9141 38H38.0882L52 68H48.6088L44.9579 59.9853Z" fill="#339797"/>
<path fill-rule="evenodd" clip-rule="evenodd" d="M73.866 40.7407H63V38H88V40.7407H77.134V68H73.866V40.7407Z" fill="#339797"/>
<mask id="mask1_3_1975" style="mask-type:luminance" maskUnits="userSpaceOnUse" x="0" y="0" width="446" height="68">
<path fill-rule="evenodd" clip-rule="evenodd" d="M0 68H446V0H0V68Z" fill="white"/>
</mask>
<g mask="url(#mask1_3_1975)">
<path fill-rule="evenodd" clip-rule="evenodd" d="M93 68H96V38H93V68Z" fill="#339797"/>
<path fill-rule="evenodd" clip-rule="evenodd" d="M127 65.2551V68H106V38H126.364V40.7405H109.139V51.4135H124.497V54.1143H109.139V65.2551H127Z" fill="#339797"/>
<path fill-rule="evenodd" clip-rule="evenodd" d="M160 38V68H157.393L138.16 43.6553V68H135V38H137.605L156.88 62.3402V38H160Z" fill="#339797"/>
<path fill-rule="evenodd" clip-rule="evenodd" d="M182.346 65.2551C185.043 65.2551 187.4 64.7343 189.423 63.6906C191.443 62.6492 193.009 61.2039 194.124 59.3636C195.238 57.5212 195.794 55.3985 195.794 52.9978C195.794 50.5971 195.238 48.4788 194.124 46.6342C193.009 44.7917 191.443 43.3486 189.423 42.3049C187.4 41.2635 185.043 40.7405 182.346 40.7405H173.251V65.2551H182.346ZM170 38H182.523C185.774 38 188.645 38.6333 191.136 39.9064C193.624 41.1774 195.559 42.947 196.937 45.2198C198.312 47.4925 199 50.083 199 52.9978C199 55.9126 198.312 58.5053 196.937 60.7758C195.559 63.0485 193.624 64.8226 191.136 66.0914C188.645 67.3623 185.774 68 182.523 68H170V38Z" fill="#339797"/>
<path fill-rule="evenodd" clip-rule="evenodd" d="M223.783 57.4145L216.481 41.2968L209.175 57.4145H223.783ZM224.958 59.9853H208.002L204.349 68H201L214.914 38H218.088L232 68H228.609L224.958 59.9853Z" fill="#339797"/>
</g>
</svg>
