<?xml version="1.0" encoding="UTF-8"?>
<svg width="138px" height="124px" viewBox="0 0 138 124" version="1.1" xmlns="http://www.w3.org/2000/svg" xmlns:xlink="http://www.w3.org/1999/xlink">
    <title>ICONS-used throughout</title>
    <g id="Page-1" stroke="none" stroke-width="1" fill="none" fill-rule="evenodd">
        <g id="ICONS-used-throughout" transform="translate(-850.000000, -850.000000)">
            <g id="hotel-box" transform="translate(880.000000, 856.161577)">
                <g id="Group-36" transform="translate(3.383568, 0.000000)">
                    <polygon id="Fill-6" fill="#9CD7D4" points="65.2017845 40.2212795 65.2017845 27.8581505 20.1099614 27.8581505 20.1099614 40.2212795 15.5992765 40.2212795 15.5992765 106.676098 70.0430326 106.676098 70.0430326 40.2212795"></polygon>
                    <path d="M59.6426133,35.9121889 L59.6426133,96.5515359 L43.3758997,96.5515359 L43.3758997,73.8147815 L27.109186,73.8147815 L27.109186,96.5515359 L9.7576241,96.5515359 L9.7576241,35.9121889 L59.6426133,35.9121889 Z M15.1818654,32.6653672 L54.2213772,32.6653672 L54.2213772,24.0021746 L15.1818654,24.0021746 L15.1818654,32.6653672 Z M30.3637308,96.5515359 L40.12436,96.5515359 L40.12436,77.0616032 L30.3637308,77.0616032 L30.3637308,96.5515359 Z M62.8971581,35.9121889 L67.233546,35.9121889 L67.233546,32.6623664 L62.8971581,32.6623664 L57.4729168,32.6623664 L57.4729168,24.0021746 L59.6486236,24.0021746 L59.6486236,20.7523521 L57.4729168,20.7523521 L11.9273206,20.7523521 L9.75161386,20.7523521 L9.75161386,24.0021746 L11.9273206,24.0021746 L11.9273206,32.6623664 L6.50608444,32.6623664 L2.1666914,32.6623664 L2.1666914,35.9121889 L6.50608444,35.9121889 L6.50608444,96.5545366 L0,96.5545366 L0,99.8013584 L69.4032426,99.8013584 L69.4032426,96.5545366 L62.8971581,96.5545366 L62.8971581,35.9121889 Z" id="Fill-8" fill="#363D47"></path>
                    <path d="M16.2652111,44.0379454 C16.2652111,43.1407183 16.9954552,42.4115338 17.8939861,42.4115338 L18.9728241,42.4115338 C19.87436,42.4115338 20.601599,43.1407183 20.601599,44.0379454 L20.601599,52.1549997 L23.8561438,52.1549997 L23.8561438,44.0379454 C23.8561438,41.3492649 21.6654114,39.1617113 18.9728241,39.1617113 L17.8939861,39.1617113 C15.2013987,39.1617113 13.0106663,41.3492649 13.0106663,44.0379454 L13.0106663,52.1549997 L16.2652111,52.1549997 L16.2652111,44.0379454 Z" id="Fill-10" fill="#363D47"></path>
                    <path d="M16.2652111,79.7721893 C16.2652111,78.8749622 16.9954552,78.1457776 17.8939861,78.1457776 L18.9728241,78.1457776 C19.87436,78.1457776 20.601599,78.8749622 20.601599,79.7721893 L20.601599,87.8892436 L23.8561438,87.8892436 L23.8561438,79.7721893 C23.8561438,77.0835088 21.6654114,74.8959551 18.9728241,74.8959551 L17.8939861,74.8959551 C15.2013987,74.8959551 13.0106663,77.0835088 13.0106663,79.7721893 L13.0106663,87.8892436 L16.2652111,87.8892436 L16.2652111,79.7721893 Z" id="Fill-12" fill="#363D47"></path>
                    <path d="M16.2652111,61.3637303 C16.2652111,60.4665033 16.9954552,59.7373187 17.8939861,59.7373187 L18.9728241,59.7373187 C19.87436,59.7373187 20.601599,60.4665033 20.601599,61.3637303 L20.601599,69.4837854 L23.8561438,69.4837854 L23.8561438,61.3637303 C23.8561438,58.6750499 21.6654114,56.4874962 18.9728241,56.4874962 L17.8939861,56.4874962 C15.2013987,56.4874962 13.0106663,58.6750499 13.0106663,61.3637303 L13.0106663,69.4837854 L16.2652111,69.4837854 L16.2652111,61.3637303 Z" id="Fill-14" fill="#363D47"></path>
                    <path d="M32.5319248,44.0379454 C32.5319248,43.1407183 33.2621689,42.4115338 34.1606997,42.4115338 L35.2395377,42.4115338 C36.1410737,42.4115338 36.8713178,43.1407183 36.8713178,44.0379454 L36.8713178,52.1549997 L40.1228575,52.1549997 L40.1228575,44.0379454 C40.1228575,41.3492649 37.9321251,39.1617113 35.2395377,39.1617113 L34.1606997,39.1617113 C31.4681123,39.1617113 29.27738,41.3492649 29.27738,44.0379454 L29.27738,52.1549997 L32.5319248,52.1549997 L32.5319248,44.0379454 Z" id="Fill-16" fill="#363D47"></path>
                    <path d="M32.5319248,61.3637303 C32.5319248,60.4665033 33.2621689,59.7373187 34.1606997,59.7373187 L35.2395377,59.7373187 C36.1410737,59.7373187 36.8713178,60.4665033 36.8713178,61.3637303 L36.8713178,69.4837854 L40.1228575,69.4837854 L40.1228575,61.3637303 C40.1228575,58.6750499 37.9321251,56.4874962 35.2395377,56.4874962 L34.1606997,56.4874962 C31.4681123,56.4874962 29.27738,58.6750499 29.27738,61.3637303 L29.27738,69.4837854 L32.5319248,69.4837854 L32.5319248,61.3637303 Z" id="Fill-18" fill="#363D47"></path>
                    <path d="M48.7983379,44.0379454 C48.7983379,43.1407183 49.528582,42.4115338 50.4271129,42.4115338 L51.5059509,42.4115338 C52.4044817,42.4115338 53.1347258,43.1407183 53.1347258,44.0379454 L53.1347258,52.1549997 L56.3892706,52.1549997 L56.3892706,44.0379454 C56.3892706,41.3492649 54.1985383,39.1617113 51.5059509,39.1617113 L50.4271129,39.1617113 C47.7345255,39.1617113 45.5437931,41.3492649 45.5437931,44.0379454 L45.5437931,52.1549997 L48.7983379,52.1549997 L48.7983379,44.0379454 Z" id="Fill-20" fill="#363D47"></path>
                    <path d="M48.7983379,79.7721893 C48.7983379,78.8749622 49.528582,78.1457776 50.4271129,78.1457776 L51.5059509,78.1457776 C52.4044817,78.1457776 53.1347258,78.8749622 53.1347258,79.7721893 L53.1347258,87.8892436 L56.3892706,87.8892436 L56.3892706,79.7721893 C56.3892706,77.0835088 54.1985383,74.8959551 51.5059509,74.8959551 L50.4271129,74.8959551 C47.7345255,74.8959551 45.5437931,77.0835088 45.5437931,79.7721893 L45.5437931,87.8892436 L48.7983379,87.8892436 L48.7983379,79.7721893 Z" id="Fill-22" fill="#363D47"></path>
                    <path d="M48.7983379,61.3637303 C48.7983379,60.4665033 49.528582,59.7373187 50.4271129,59.7373187 L51.5059509,59.7373187 C52.4044817,59.7373187 53.1347258,60.4665033 53.1347258,61.3637303 L53.1347258,69.4837854 L56.3892706,69.4837854 L56.3892706,61.3637303 C56.3892706,58.6750499 54.1985383,56.4874962 51.5059509,56.4874962 L50.4271129,56.4874962 C47.7345255,56.4874962 45.5437931,58.6750499 45.5437931,61.3637303 L45.5437931,69.4837854 L48.7983379,69.4837854 L48.7983379,61.3637303 Z" id="Fill-24" fill="#363D47"></path>
                    <polygon id="Fill-26" fill="#363D47" points="16.3193033 14.8987707 19.2553053 16.1500874 18.969819 12.9752839 21.0703977 10.5716755 17.9570936 9.86349632 16.3193033 7.1268037 14.6815129 9.86349632 11.5682088 10.5716755 13.6687876 12.9752839 13.3833012 16.1500874"></polygon>
                    <polygon id="Fill-28" fill="#363D47" points="21.8826816 10.8288406 24.8186837 9.57452318 26.2761668 10.1956804 27.7516806 10.7778277 27.4691994 7.65103637 29.5727833 5.24742805 26.456474 4.53924882 24.8186837 1.79955544 23.1808934 4.53924882 20.0675892 5.24742805 22.168168 7.65103637"></polygon>
                    <polygon id="Fill-30" fill="#363D47" points="31.7517957 9.03228595 34.6908028 7.77196698 37.62981 9.03228595 37.3383134 5.85148093 39.4449024 3.44787261 36.3285932 2.74269414 34.6908028 0 33.0530125 2.74269414 29.9367033 3.45087337 32.0432923 5.85148093"></polygon>
                    <polygon id="Fill-32" fill="#363D47" points="41.5863508 11.0130873 44.5283631 9.74976753 47.4673703 11.0130873 47.1728686 7.82928148 49.2854678 5.42567316 46.1631483 4.72349545 44.525358 1.97179904 42.8905728 4.72349545 39.7682533 5.42567316 41.8808526 7.82928148"></polygon>
                    <polygon id="Fill-34" fill="#363D47" points="57.6925911 10.9005588 54.5642613 10.1983811 52.9294761 7.44668465 51.294691 10.1983811 48.1663612 10.9005588 50.2849707 13.3041671 49.9874638 16.4909736 52.9294761 15.2246532 55.8744936 16.4909736 55.5739816 13.3041671"></polygon>
                </g>
            </g>
        </g>
    </g>
</svg>