<svg width="51" height="51" viewBox="0 0 51 51" fill="none" xmlns="http://www.w3.org/2000/svg">
<path fill-rule="evenodd" clip-rule="evenodd" d="M25.5137 42.0352C25.5137 42.0392 25.5137 42.0412 25.5116 42.0453C28.2654 42.0453 31.0191 42.1121 33.7687 42.0291C38.0543 41.9014 41.882 38.4772 42.042 34.208C42.2629 28.405 42.2568 22.5797 42.042 16.7747C41.888 12.6089 38.0624 9.06103 33.9025 8.97796C28.2958 8.86449 22.685 8.85639 17.0783 8.98201C12.7866 9.07724 9.02786 12.7933 8.91844 17.107C8.77457 22.7601 8.77457 28.4232 8.9306 34.0763C9.04407 38.1996 12.8494 41.8629 16.9466 42.0149C19.7996 42.1202 22.6586 42.0352 25.5137 42.0352ZM50.9982 25.5643C50.9962 31.5983 51.0023 37.6323 50.9941 43.6662C50.9881 48.3589 48.3397 50.9949 43.6286 50.997C31.5601 51.001 19.4916 51.001 7.42304 50.997C2.62481 50.997 0.0109122 48.3771 0.00685967 43.5507C-0.00124545 31.5334 -0.00327173 19.5161 0.00685967 7.50087C0.0109122 2.59143 2.60252 0.0141236 7.53652 0.0100713C19.5524 -0.00208583 31.5702 -0.00208583 43.5861 0.00399272C48.3802 0.00601891 50.9941 2.64816 50.9982 7.46035C51.0023 13.4943 50.9982 19.5283 50.9982 25.5643Z" fill="#363D47"/>
</svg>
