<svg width="35" height="37" viewBox="0 0 35 37" fill="none" xmlns="http://www.w3.org/2000/svg">
<mask id="mask0_3_1932" style="mask-type:luminance" maskUnits="userSpaceOnUse" x="0" y="0" width="35" height="37">
<path fill-rule="evenodd" clip-rule="evenodd" d="M0 0H35V37H0V0Z" fill="white"/>
</mask>
<g mask="url(#mask0_3_1932)">
<path fill-rule="evenodd" clip-rule="evenodd" d="M17.5356 26.3367C17.1466 26.9341 16.6008 27.398 15.8943 27.7285C15.3248 27.9953 14.6718 28.1506 13.9435 28.2004V29.7992H12.5602V28.1665C12.0006 28.0949 11.4747 27.9595 10.9944 27.7424C10.278 27.4219 9.68459 26.9699 9.21821 26.3845C8.74985 25.7991 8.44423 25.1082 8.29935 24.3078L9.64489 24.0729C9.85129 24.941 10.2998 25.6279 10.9845 26.1336C11.6711 26.6414 12.5007 26.8942 13.4731 26.8942C14.4575 26.8942 15.2533 26.6533 15.8626 26.1715C16.4699 25.6916 16.7735 25.0605 16.7735 24.2799C16.7735 23.7005 16.6048 23.2386 16.2654 22.8941C15.9281 22.5477 15.3545 22.251 14.5448 22.0061L11.5362 21.0624C9.71634 20.4909 8.8074 19.4097 8.8074 17.8169C8.8074 17.0762 8.99197 16.4211 9.35912 15.8596C9.72428 15.2962 10.2363 14.8561 10.8912 14.5415C11.3854 14.3066 11.9411 14.1612 12.5602 14.1055V12.4768H13.9435V14.1294C14.5051 14.1991 15.0251 14.3404 15.4994 14.5654C16.1801 14.89 16.7398 15.3479 17.1784 15.9393C17.6169 16.5306 17.9087 17.2315 18.0535 18.0439L16.6703 18.3067C16.583 17.7293 16.3805 17.2235 16.063 16.7895C15.7475 16.3534 15.3406 16.0169 14.8465 15.774C14.3503 15.5311 13.7986 15.4077 13.1913 15.4017C12.6138 15.4017 12.0998 15.5012 11.6493 15.7023C11.1968 15.9034 10.8416 16.1842 10.5816 16.5386C10.3216 16.893 10.1907 17.3012 10.1907 17.7591C10.1907 18.2629 10.3713 18.691 10.7305 19.0394C11.0917 19.3878 11.6632 19.6825 12.4471 19.9215L15.033 20.704C16.1245 21.0325 16.9124 21.4705 17.3947 22.026C17.8769 22.5796 18.119 23.3183 18.119 24.2421C18.119 25.0405 17.9246 25.7394 17.5356 26.3367ZM27.8713 5.04008C23.5469 6.6449 20.4628 6.78826 20.2386 6.18097C20.181 6.02965 20.0123 5.95399 19.8615 6.01173C19.7127 6.06748 19.6353 6.23473 19.6908 6.38407C19.8734 6.87985 20.5501 7.09289 21.5226 7.09289C23.1777 7.09289 25.6862 6.47765 28.0757 5.58962C31.8682 4.18192 35.4484 2.05345 34.9542 0.713453C34.72 0.0842695 33.7377 -0.130768 32.0289 0.0763052C30.1615 0.347093 28.3297 0.826945 26.5694 1.5079C25.5771 1.87625 24.6364 2.28044 23.7652 2.70653C23.5865 2.57313 23.4 2.45167 23.2075 2.34017C23.0487 2.24659 22.884 2.16097 22.7153 2.08531C19.7603 0.719426 16.2555 1.94593 14.7869 4.86088L12.7726 3.93304C12.0323 3.59256 11.1571 3.91711 10.8178 4.65779L0.134802 27.9734C-0.204561 28.7141 0.118925 29.5922 0.857188 29.9346C0.859172 29.9346 0.859173 29.9346 0.861157 29.9366L15.8804 36.8636C16.6207 37.2061 17.4959 36.8815 17.8372 36.1408C17.8372 36.1389 17.8392 36.1369 17.8392 36.1349L28.5202 12.8212C28.8576 12.0786 28.5341 11.2005 27.7939 10.856L25.7775 9.9282C26.1844 8.95257 26.3272 7.88534 26.1923 6.83604C25.0373 7.19046 23.8525 7.4493 22.6538 7.60659C22.2807 8.3871 21.4928 8.88089 20.6295 8.88089C20.306 8.88089 19.9885 8.80921 19.6948 8.67381C18.5695 8.15414 18.0793 6.81613 18.5973 5.68719C19.1173 4.55824 20.4489 4.06445 21.5742 4.58611C22.1061 4.83102 22.5188 5.27503 22.7292 5.82059C23.7413 5.66727 24.7416 5.44029 25.72 5.14163C25.4699 4.56222 25.1286 4.02662 24.7078 3.55672C24.5689 3.40341 24.4221 3.25607 24.2673 3.11669C25.0532 2.74237 25.8906 2.38596 26.7738 2.05943C28.4904 1.3944 30.2766 0.924508 32.0984 0.659693C33.7714 0.456603 34.335 0.725399 34.4065 0.916543C34.6287 1.52582 32.1956 3.43328 27.8713 5.04008Z" fill="#353D47"/>
</g>
</svg>
