<svg width="52" height="52" viewBox="0 0 52 52" fill="none" xmlns="http://www.w3.org/2000/svg">
<path fill-rule="evenodd" clip-rule="evenodd" d="M46.2052 0H5.79478C2.60765 0 0 2.60765 0 5.79478V45.4441C6.22735 36.1398 12.9546 29.2596 20.0716 25.0053C18.5719 23.8484 15.0807 23.1914 11.7528 24.8686C11.9568 24.4789 14.0748 19.6614 18.2189 20.3756C15.7296 17.2844 11.4671 17.0518 11.4671 17.0518C11.4671 17.0518 16.2723 12.773 22.3874 18.4229C24.7237 13.4423 16.811 9.93887 16.811 9.93887C16.811 9.93887 25.2767 7.54954 27.2783 15.3439C29.6778 11.9915 28.3659 8.98395 28.3659 8.98395C29.0025 9.42672 34.4014 13.4117 31.3306 21.9794C35.3482 20.8918 38.5312 22.8751 39.7799 24.2748L42.9793 27.8578C42.9793 27.8578 38.5985 24.738 35.4624 25.7092C37.4253 27.5456 37.3988 30.9082 37.3988 30.9082C37.3988 30.9082 35.4584 28.1618 32.8752 28.4516C42.6916 36.2174 33.0017 43.6486 33.0017 43.6486C33.0017 43.6486 35.8991 38.0497 32.161 34.4239C33.8362 40.0228 25.7011 42.5692 25.7011 42.5692C25.7011 42.5692 31 36.6132 27.5477 34.0239C25.395 39.782 17.2762 39.5739 17.2762 39.5739C17.2762 39.5739 24.8217 34.0199 24.0055 30.5246C22.6996 27.9415 17.5659 31.0062 15.2888 32.7017C9.67973 37.6171 4.99086 43.8343 1.25486 49.7576C2.31791 51.1104 3.95025 52 5.79478 52H46.2052C49.3923 52 52 49.3923 52 46.2052V5.79478C52 2.60765 49.3923 0 46.2052 0Z" fill="#363D47"/>
</svg>
