<?xml version="1.0" encoding="UTF-8"?>
<svg width="138px" height="124px" viewBox="0 0 138 124" version="1.1" xmlns="http://www.w3.org/2000/svg" xmlns:xlink="http://www.w3.org/1999/xlink">
    <title>ICONS-used throughout</title>
    <g id="Page-1" stroke="none" stroke-width="1" fill="none" fill-rule="evenodd">
        <g id="ICONS-used-throughout" transform="translate(-504.000000, -839.000000)">
            <g id="paquete-box" transform="translate(512.000000, 860.303533)">
                <g id="paquete" transform="translate(17.877902, 0.000000)">
                    <polygon id="Fill-6" fill="#9CD7D4" points="13.7281711 22.1238447 48.2720235 8.9805183 79.9369712 23.267134 87.8073801 41.6617895 82.6085228 44.1854282 80.8174713 74.9312095 48.8580219 87.3423506 13.7281711 76.4285885 13.2293212 44.1854282 8.03046385 41.6617895"></polygon>
                    <path d="M39.3381028,3.40630754 L39.3381028,26.4581416 L10.0592203,14.7671828 L39.3381028,3.40630754 Z M8.40339923,37.194859 L33.5652676,49.3899454 C34.2594503,49.7200289 35.0828531,49.4289552 35.4224317,48.7327791 L39.3381028,37.0298172 L39.3381028,77.9331693 L8.40339923,65.9211292 L8.40339923,37.194859 Z M38.992514,29.3118639 L33.348899,46.2241442 L3.08734224,31.5354266 L7.73626262,16.8197023 L38.992514,29.3118639 Z M78.362589,31.5354266 L48.1010322,46.2241442 L42.427366,29.3118639 L73.7106635,16.8197023 L78.362589,31.5354266 Z M42.1118284,26.4581416 L42.1118284,3.40630754 L71.3907109,14.7671828 L42.1118284,26.4581416 Z M73.046532,37.194859 L73.046532,65.9211292 L42.1118284,77.9331693 L42.1118284,37.0298172 L45.9764125,48.6097479 C46.1026275,48.9608368 46.3550576,49.2369066 46.691631,49.3959469 C47.0282044,49.5489856 47.4038444,49.5729917 47.7404178,49.4469598 L73.046532,37.194859 Z M81.3887446,31.8415041 L75.7691705,14.0680059 C75.6399504,13.6659041 75.3394384,13.3508244 74.9487728,13.2007864 L41.2523641,0.11447442 C40.9939238,-0.00255519835 40.7024272,-0.026561274 40.4319664,0.0274523962 L40.3808794,0.039455434 C40.3087565,0.0634615096 40.2396387,0.0904683446 40.2125927,0.108472901 L6.50416349,13.2007864 C6.11049279,13.3478236 5.80998081,13.6659041 5.67775554,14.0710066 L0.0581814469,31.8475056 C-0.137151342,32.5046719 0.172376001,33.1978474 0.791430686,33.488921 L5.63568386,35.8415164 C5.62967362,35.8985309 5.6266685,35.9525445 5.62967362,36.009559 L5.62967362,66.8783715 C5.63868898,67.433512 5.97826752,67.9256365 6.50115837,68.1386904 L40.2065824,81.2310039 C40.371864,81.2970206 40.5491661,81.330029 40.7264682,81.330029 C40.9007651,81.330029 41.0750621,81.3000214 41.2373385,81.2310039 L74.9547831,68.1356897 C75.4686586,67.9256365 75.8112422,67.433512 75.8202576,66.8693692 L75.8202576,36.0185613 C75.8232627,35.9585461 75.8202576,35.9015316 75.8142473,35.8415164 L80.6554954,33.4919218 C81.2775552,33.1978474 81.5870825,32.5046719 81.3887446,31.8415041 L81.3887446,31.8415041 Z" id="Fill-8" fill="#363D47"></path>
                </g>
            </g>
        </g>
    </g>
</svg>