<?xml version="1.0" encoding="UTF-8"?>
<svg width="138px" height="121px" viewBox="0 0 138 121" version="1.1" xmlns="http://www.w3.org/2000/svg" xmlns:xlink="http://www.w3.org/1999/xlink">
    <title>ICONS-used throughout</title>
    <defs>
        <polygon id="path-1" points="0 0 243 0 243 242.9985 0 242.9985"></polygon>
        <polygon id="path-3" points="0 243 243 243 243 0 0 0"></polygon>
    </defs>
    <g id="Page-1" stroke="none" stroke-width="1" fill="none" fill-rule="evenodd">
        <g id="ICONS-used-throughout" transform="translate(-155.000000, -489.000000)">
            <g id="remesas-9" transform="translate(104.000000, 461.000000)">
                <path d="M224.970183,239.999259 L18.0316205,239.999259 C9.767541,239.999259 3.00602137,233.247592 3.00602137,224.995554 L3.00602137,15.357792 C3.00602137,7.10575451 9.767541,0.354087429 18.0316205,0.354087429 L224.970183,0.354087429 C233.234262,0.354087429 239.995782,7.10575451 239.995782,15.357792 L239.995782,224.995554 C239.995782,233.247592 233.234262,239.999259 224.970183,239.999259" id="Fill-1" fill="#FEFEFE"></path>
                <g id="Group-5">
                    <mask id="mask-2" fill="white">
                        <use xlink:href="#path-1"></use>
                    </mask>
                    <g id="Clip-4"></g>
                    <path d="M16.5281591,2.99924055 C9.07245678,2.99924055 3.00511983,9.05773648 3.00511983,16.5025747 L3.00511983,226.494425 C3.00511983,233.942264 9.07245678,239.997759 16.5281591,239.997759 L226.471841,239.997759 C233.930548,239.997759 239.99488,233.942264 239.99488,226.494425 L239.99488,16.5025747 C239.99488,9.05773648 233.930548,2.99924055 226.471841,2.99924055 L16.5281591,2.99924055 Z M226.471841,242.9985 L16.5281591,242.9985 C7.41363063,242.9985 0,235.595672 0,226.494425 L0,16.5025747 C0,7.40132749 7.41363063,-0.00150037046 16.5281591,-0.00150037046 L226.471841,-0.00150037046 C235.586369,-0.00150037046 243,7.40132749 243,16.5025747 L243,226.494425 C243,235.595672 235.586369,242.9985 226.471841,242.9985 L226.471841,242.9985 Z" id="Fill-3" fill="#363D47" mask="url(#mask-2)"></path>
                </g>
                <mask id="mask-4" fill="white">
                    <use xlink:href="#path-3"></use>
                </mask>
                <g id="Clip-7"></g>
                <polygon id="Fill-6" fill="#9CD7D4" mask="url(#mask-4)" points="84.987794 119.009385 167.514395 119.009385 167.514395 69.9802791 84.987794 69.9802791"></polygon>
                <path d="M120.02659,71.6846999 C118.983813,71.6846999 118.139374,72.5279081 118.139374,73.5691652 L118.139374,74.8354779 C114.878819,75.5946653 112.357524,78.4693752 112.357524,82.1722895 C112.357524,84.5368733 113.5175,86.382329 114.923896,87.4145838 C116.330292,88.4468387 117.805806,88.9119536 119.052931,89.5061003 C121.28273,90.43633 123.578641,91.4385774 123.596672,93.4850827 C123.596672,96.0057051 122.145199,97.2540133 119.849288,97.2540133 C118.067252,97.2540133 116.573707,95.879674 115.897555,94.5143369 C115.51891,93.5390961 114.259765,93.0469746 113.331183,93.5150901 C112.399596,93.980205 112.011935,95.3065325 112.561872,96.1947518 C113.556567,98.196246 115.479843,100.19774 118.139374,100.818894 L118.139374,101.851148 C118.139374,102.892406 118.983813,103.735614 120.02659,103.735614 C121.069366,103.735614 121.913805,102.892406 121.913805,101.851148 L121.913805,100.731872 C124.997058,99.8496542 127.344057,97.049963 127.344057,93.4850827 C127.344057,91.1204989 126.211126,89.2450358 124.80473,88.2097802 C123.398334,87.1775253 121.892769,86.7124105 120.645644,86.1182638 C118.427866,85.1940356 116.119934,84.1917881 116.101903,82.1722895 C116.101903,79.6516671 117.553376,78.4003581 119.849288,78.4003581 C121.631324,78.4003581 123.124868,79.7476908 123.804025,81.1100272 C124.179665,82.085268 125.468862,82.5803902 126.400449,82.1122746 C127.329031,81.6441591 127.68664,80.3208323 127.136703,79.432613 C126.187085,77.5241418 124.384014,75.6306742 121.913805,74.9255001 L121.913805,73.5691652 C121.913805,72.5279081 121.069366,71.6846999 120.02659,71.6846999 L120.02659,71.6846999 Z M135.190424,66.9705359 L159.498839,66.9705359 L159.498839,108.449778 L135.160373,108.449778 C140.813004,103.567572 144.395106,96.0867251 144.395106,87.7116572 C144.395106,79.351593 140.825024,71.8617436 135.190424,66.9705359 Z M111.206563,66.9705359 L128.495017,66.9705359 C135.578085,70.5504199 140.617671,78.4603729 140.617671,87.7116572 C140.617671,96.9839467 135.551039,104.884898 128.434915,108.449778 L111.26366,108.449778 C104.147537,104.884898 99.0809045,96.9839467 99.0809045,87.7116572 C99.0809045,78.4603729 104.12049,70.5504199 111.206563,66.9705359 Z M80.1997366,66.9705359 L104.508151,66.9705359 C98.8735512,71.8617436 95.3034689,79.351593 95.3034689,87.7116572 C95.3034689,96.0867251 98.8855717,103.567572 104.538202,108.449778 L80.1997366,108.449778 L80.1997366,66.9705359 Z M78.3125213,63.2016053 C77.2637345,63.2106076 76.4463419,64.236861 76.422301,65.0860706 L76.422301,110.334243 C76.422301,111.321487 77.3238369,112.218708 78.3125213,112.218708 L161.389059,112.218708 C162.377744,112.218708 163.276274,111.321487 163.276274,110.334243 L163.276274,65.0860706 C163.276274,64.0988269 162.377744,63.2016053 161.389059,63.2016053 L78.3125213,63.2016053 Z" id="Fill-8" fill="#363D47" mask="url(#mask-4)"></path>
            </g>
        </g>
    </g>
</svg>