<svg width="36" height="34" viewBox="0 0 36 34" fill="none" xmlns="http://www.w3.org/2000/svg">
<path fill-rule="evenodd" clip-rule="evenodd" d="M32.6986 23.1789C31.7132 23.5174 30.0844 23.892 28.3038 24.2285C27.6583 25.242 26.4848 26.0672 24.6658 26.3296C24.2489 26.4037 23.7573 26.4417 23.2635 26.4417C22.0131 26.4417 20.536 26.2915 18.9072 26.1052C18.7939 26.1052 18.6421 26.0672 18.5288 26.0672C18.112 26.0291 17.8085 25.6546 17.8085 25.242C17.8469 24.7913 18.2253 24.4548 18.717 24.4908C18.8303 24.4908 18.9821 24.5289 19.0954 24.5289C21.2179 24.7532 23.1887 24.9796 24.4391 24.7913C26.7883 24.4167 27.4702 23.0287 27.3569 21.867C27.2415 20.8916 26.5597 19.9542 25.4245 19.9902C23.7937 20.0663 21.8613 19.8781 20.0059 19.6918C17.8834 19.4655 15.6475 19.2792 14.0956 19.5035C13.2235 19.6157 11.7464 20.1785 10.154 20.8154C9.81408 20.9657 9.43368 21.1159 9.09375 21.2661V31.4671C12.2765 32.5928 16.1412 33.7925 18.4519 33.9808C23.0754 34.3554 32.1685 29.1417 34.7443 27.4913C37.3221 25.8048 35.5779 22.2035 32.6986 23.1789Z" fill="#353D47"/>
<mask id="mask0_3_1921" style="mask-type:luminance" maskUnits="userSpaceOnUse" x="0" y="19" width="8" height="15">
<path fill-rule="evenodd" clip-rule="evenodd" d="M0 19.4282H7.46348V33.1564H0V19.4282Z" fill="white"/>
</mask>
<g mask="url(#mask0_3_1921)">
<path fill-rule="evenodd" clip-rule="evenodd" d="M6.4033 19.4282H1.06155C0.45453 19.4282 -0.000732422 19.9149 -0.000732422 20.4777V32.1048C-0.000732422 32.7057 0.492975 33.1564 1.06155 33.1564H6.4033C7.01031 33.1564 7.46355 32.6677 7.46355 32.1048V20.4777C7.46355 19.8789 7.01031 19.4282 6.4033 19.4282Z" fill="#353D47"/>
</g>
<mask id="mask1_3_1921" style="mask-type:luminance" maskUnits="userSpaceOnUse" x="7" y="0" width="22" height="13">
<path fill-rule="evenodd" clip-rule="evenodd" d="M7.7749 0H28.304V12.1517H7.7749V0Z" fill="white"/>
</mask>
<g mask="url(#mask1_3_1921)">
<path fill-rule="evenodd" clip-rule="evenodd" d="M16.9366 1.9126C16.9366 1.5741 17.2016 1.31172 17.5436 1.31172H18.4905C18.8305 1.31172 19.0955 1.5741 19.0955 1.9126V2.51349C18.7556 2.47543 18.3772 2.47543 18.0353 2.47543C17.6569 2.47543 17.3149 2.51349 16.975 2.51349V1.9126H16.9366ZM7.91833 12.1517H28.1138C28.2271 12.1517 28.304 12.0776 28.304 11.9634C28.0005 7.46277 24.7428 3.78736 20.4613 2.73782V1.9126C20.4613 0.863057 19.5892 -0.000213623 18.527 -0.000213623H17.58C16.5198 -0.000213623 15.6477 0.863057 15.6477 1.9126V2.73782C11.3662 3.75131 8.10852 7.46277 7.80502 11.9634C7.73015 12.0776 7.80502 12.1517 7.91833 12.1517Z" fill="#353D47"/>
</g>
<path fill-rule="evenodd" clip-rule="evenodd" d="M6.36548 15.9026H29.6304C30.0088 15.9026 30.3123 15.6022 30.3123 15.2276V13.9157C30.3123 13.5391 30.0088 13.2387 29.6304 13.2387H6.36548C5.9871 13.2387 5.68359 13.5391 5.68359 13.9157V15.2276C5.68359 15.6022 5.9871 15.9026 6.36548 15.9026Z" fill="#353D47"/>
</svg>
