<?xml version="1.0" encoding="UTF-8"?>
<svg width="138px" height="121px" viewBox="0 0 138 121" version="1.1" xmlns="http://www.w3.org/2000/svg" xmlns:xlink="http://www.w3.org/1999/xlink">
    <title>ICONS-used throughout</title>
    <g id="Page-1" stroke="none" stroke-width="1" fill="none" fill-rule="evenodd">
        <g id="ICONS-used-throughout" transform="translate(-504.000000, -489.000000)">
            <g id="tienda-box" transform="translate(523.000000, 510.397297)">
                <g id="Group-13" transform="translate(10.605936, 0.000000)">
                    <path d="M72.2575054,7.73140899 L25.1943237,7.73140899 L10.4962826,26.1619597 C10.4962826,26.1619597 7.22370706,36.9976352 17.804734,39.4252346 L17.804734,84.106267 L79.6801514,84.106267 L78.0603918,36.2894604 C78.0603918,36.2894604 86.3094457,36.7365708 86.9735772,26.077939 L72.2575054,7.73140899 Z" id="Fill-6" fill="#9CD7D4"></path>
                    <path d="M62.5064925,22.1694739 L62.5064925,22.1364658 L62.5064925,19.6938627 L73.9169326,19.6938627 L73.9169326,22.1364658 C73.9169326,25.2752408 71.3535653,27.8318721 68.21021,27.8318721 C65.0668546,27.8318721 62.5215181,25.2932452 62.5064925,22.1694739 L62.5064925,22.1694739 Z M66.5904504,74.4393801 L11.1970765,74.4393801 L11.1970765,30.9076315 C13.5470802,30.4695233 15.5755361,29.1281921 16.9037991,27.2347246 C18.5235587,29.5482959 21.1981153,31.0546678 24.2272761,31.0546678 C27.259442,31.0546678 29.9339987,29.5332922 31.5537583,27.2347246 C33.1735178,29.5482959 35.8480745,31.0546678 38.8772353,31.0546678 C41.9094012,31.0546678 44.5839579,29.5332922 46.2037174,27.2347246 C47.823477,29.5482959 50.4980337,31.0546678 53.5271945,31.0546678 C56.5593604,31.0546678 59.233917,29.5332922 60.8536766,27.2347246 C62.1819396,29.1101877 64.2073904,30.4695233 66.5573941,30.9076315 L66.5573941,74.4393801 L66.5904504,74.4393801 Z M3.87359947,22.1214621 L3.87359947,19.678859 L15.2810344,19.678859 L15.2810344,22.1214621 L15.2810344,22.1544702 C15.2660088,25.2752408 12.7056467,27.8169341 9.57731691,27.8169341 C6.43396156,27.8318721 3.87359947,25.2752408 3.87359947,22.1214621 L3.87359947,22.1214621 Z M16.1404986,3.23479872 L22.2018253,3.23479872 L15.8970839,16.4410595 L5.62257921,16.4410595 L16.1404986,3.23479872 Z M29.9490243,22.1694739 C29.9339987,25.2932452 27.3706314,27.8318721 24.2453068,27.8318721 C21.0989464,27.8318721 18.556615,25.2932452 18.5385843,22.1694739 L18.5385843,22.1364658 L18.5385843,19.6938627 L29.9490243,19.6938627 L29.9490243,22.1364658 L29.9490243,22.1694739 Z M25.7839282,3.23479872 L32.2659717,3.23479872 L30.1593827,16.4410595 L19.4641612,16.4410595 L25.7839282,3.23479872 Z M33.1885434,22.1214621 L33.1885434,19.678859 L44.5989835,19.678859 L44.5989835,22.1214621 L44.5989835,22.1544702 C44.5839579,25.2752408 42.0235958,27.8168684 38.895266,27.8168684 C35.7669363,27.8168684 33.2065742,25.2752408 33.1885434,22.1544702 L33.1885434,22.1214621 Z M35.5565779,3.23479872 L42.2008978,3.23479872 L44.3074868,16.4410595 L33.4499889,16.4410595 L35.5565779,3.23479872 Z M51.9735475,3.23479872 L58.2752838,16.4410595 L47.5800623,16.4410595 L45.491504,3.23479872 L51.9735475,3.23479872 Z M59.2489426,22.1694739 C59.233917,25.2932452 56.6735549,27.8318721 53.5452252,27.8318721 C50.4168955,27.8318721 47.8565334,25.2932452 47.8415078,22.1694739 L47.8415078,22.1364658 L47.8415078,19.6938627 L59.2489426,19.6938627 L59.2489426,22.1364658 L59.2489426,22.1694739 Z M61.6320027,3.23479872 L72.1499221,16.4410595 L61.8754174,16.4410595 L55.570676,3.23479872 L61.6320027,3.23479872 Z M76.1677673,74.4393801 L69.8329747,74.4393801 L69.8329747,30.9076315 C73.9950657,30.1484441 77.1564517,26.5055446 77.1564517,22.1214621 L77.1564517,18.0584589 C77.1564517,17.9954433 77.1233954,17.9444307 77.1233954,17.8814152 L77.1233954,17.8664115 C77.0933442,17.5573351 76.9791497,17.2992714 76.7988425,17.0712151 C76.7988425,17.0712151 76.7988425,17.0562114 76.7838169,17.0562114 L76.7687913,17.038207 C76.7177042,16.9901951 76.7026786,16.9271796 76.6545967,16.8941714 L63.6905098,0.615151889 C63.3659568,0.225055569 62.9121837,0 62.4103287,0 L52.9922831,0 L43.5952734,0 L34.1772279,0 L24.7621874,0 L15.347147,0 C14.8603176,0 14.3915189,0.225055569 14.0819915,0.615151889 L0.988684425,17.0562114 C0.922571789,17.1372314 0.892520591,17.2182514 0.841433553,17.2992714 C0.811382355,17.362287 0.763300438,17.4283033 0.745269719,17.4913188 C0.697187801,17.6383551 0.664131483,17.8003952 0.649105884,17.9624352 C0.649105884,17.9954433 0.631075165,18.010447 0.631075165,18.0434552 L0.631075165,22.1034576 C0.631075165,26.4725364 3.79246123,30.1304396 7.95755732,30.8926278 L7.95755732,74.4393801 L1.61975959,74.4393801 C0.73024412,74.4393801 0,75.1655594 0,76.0567795 C0,76.9479995 0.73024412,77.6741788 1.61975959,77.6741788 L9.57731691,77.6741788 L68.1951844,77.6741788 L76.1677673,77.6741788 C77.0602879,77.6741788 77.7875269,76.9479995 77.7875269,76.0567795 C77.7875269,75.1655594 77.0602879,74.4393801 76.1677673,74.4393801 L76.1677673,74.4393801 Z" id="Fill-8" fill="#363D47"></path>
                    <path d="M20.6319507,60.069732 L57.1591823,60.069732 L57.1591823,38.9505174 L20.6319507,38.9505174 L20.6319507,60.069732 Z M60.3987015,60.069732 L60.3987015,37.3331181 C60.3987015,36.441898 59.6714625,35.712718 58.7789419,35.712718 L19.009186,35.712718 C18.1196705,35.712718 17.3894264,36.441898 17.3894264,37.3331181 L17.3894264,60.069732 L15.8508051,60.069732 C14.9582845,60.069732 14.2280404,60.7959113 14.2280404,61.6871314 C14.2280404,62.5753507 14.9582845,63.3045307 15.8508051,63.3045307 L19.009186,63.3045307 L58.7789419,63.3045307 L61.940328,63.3045307 C62.8298434,63.3045307 63.5600876,62.5753507 63.5600876,61.6871314 C63.5600876,60.7959113 62.8298434,60.069732 61.940328,60.069732 L60.3987015,60.069732 Z" id="Fill-10" fill="#363D47"></path>
                    <path d="M36.5936447,49.7252778 C37.7145544,49.3021734 38.8955665,50.3044208 38.8955665,50.3044208 C38.8955665,50.3044208 38.5229317,48.8040504 37.4350783,48.2069029 C38.7272798,47.4177081 41.038217,48.3089281 41.038217,48.3089281 L39.2020887,47.0756236 C38.4838651,46.5925043 36.8370594,46.0703754 35.1662128,47.0126081 C35.5598835,42.8415782 32.6960043,41.6802914 32.3594309,41.5542603 C32.3594309,41.5542603 33.2880129,42.7485552 32.5998405,44.5159916 C30.8178044,41.2661892 27.3048193,43.29469 27.3048193,43.29469 C27.3048193,43.29469 31.2415263,43.9578538 30.7667174,46.445468 C27.3889627,44.6210175 25.7301365,47.0756236 25.7301365,47.0756236 C25.7301365,47.0756236 27.6624286,46.6945295 29.1259219,47.7898 C27.1906248,47.9428377 26.7969541,50.3344283 26.7488722,50.5324772 C28.0440788,49.4041986 29.678864,49.2991726 30.481231,49.6442578 C27.7315463,52.4079402 25.5017474,56.3959249 23.7677933,61.3951593 L25.3875529,61.3951593 C26.3371707,58.7515065 27.5782852,56.0148308 29.2220858,53.6232403 C30.0454886,52.6059891 31.9898011,50.6555075 32.8672961,51.6607557 C33.6305966,53.1251173 30.8929324,56.4619412 30.8929324,56.4619412 C30.8929324,56.4619412 34.544153,55.630736 34.8476701,52.8190417 C36.6868034,53.5782292 34.9979261,56.8400346 34.9979261,56.8400346 C34.9979261,56.8400346 38.3426245,54.7785256 36.9542591,52.4709558 C39.0368072,53.6622499 38.381691,56.4889479 38.381691,56.4889479 C38.381691,56.4889479 41.8646249,52.0718572 36.5936447,49.7252778" id="Fill-12" fill="#363D47"></path>
                </g>
            </g>
        </g>
    </g>
</svg>