<svg width="33" height="33" viewBox="0 0 33 33" fill="none" xmlns="http://www.w3.org/2000/svg">
<mask id="mask0_3_1887" style="mask-type:luminance" maskUnits="userSpaceOnUse" x="0" y="0" width="33" height="33">
<path fill-rule="evenodd" clip-rule="evenodd" d="M0 0H33V33H0V0Z" fill="white"/>
</mask>
<g mask="url(#mask0_3_1887)">
<path fill-rule="evenodd" clip-rule="evenodd" d="M32.7101 0.287501C31.6315 -0.790423 27.8635 1.26267 24.412 4.708C24.41 4.708 24.41 4.71001 24.408 4.71203C24.4039 4.71404 24.4019 4.71807 24.3999 4.72009L21.4242 7.85312L17.4868 6.70669L17.6582 6.53543C17.8497 6.34201 17.8679 6.04986 17.6965 5.88062L16.501 4.68584C16.3316 4.51458 16.0393 4.53271 15.8457 4.72412L14.6805 5.88868L11.8761 5.07066L12.1846 4.7624C12.3761 4.57099 12.3943 4.27884 12.2229 4.10758L11.0274 2.9128C10.856 2.74154 10.5637 2.75968 10.3721 2.95108L9.17662 4.14587C9.14235 4.18012 9.12017 4.22041 9.09799 4.2587L3.00949 2.48365L1.25753 4.23452L14.3458 12.2132L15.8881 13.684L9.35806 20.5585L8.09601 21.8178L1.68897 19.7183L-0.000488281 21.4531L5.6465 24.9045L2.11234 30.8925L8.10004 27.3585L11.5556 33L13.2914 31.3136L11.1886 24.9085L12.4487 23.6472L19.3295 17.1233L20.8012 18.6646L28.7848 31.7448L30.5368 29.9939L28.7445 23.8588C28.7768 23.8386 28.809 23.8225 28.8372 23.7943L30.0328 22.5995C30.2243 22.4081 30.2424 22.116 30.0711 21.9447L28.8755 20.7499C28.7042 20.5787 28.4119 20.5968 28.2203 20.7882L27.932 21.0763L27.1135 18.2737L28.2586 17.1293C28.4502 16.9359 28.4683 16.6458 28.2969 16.4745L27.1034 15.2797C26.9321 15.1085 26.6397 15.1266 26.4462 15.318L26.295 15.4691L25.164 11.5906L28.2969 8.61673H28.299C28.301 8.61472 28.303 8.61069 28.307 8.60868C28.309 8.60666 28.309 8.60465 28.3111 8.60263C31.7565 5.15529 33.7887 1.36543 32.7101 0.287501Z" fill="#353D47"/>
</g>
</svg>
