<svg width="50" height="51" viewBox="0 0 50 51" fill="none" xmlns="http://www.w3.org/2000/svg">
<path fill-rule="evenodd" clip-rule="evenodd" d="M37.1484 38.9006C40.0241 38.7261 42.319 36.3178 42.3553 33.3675C42.4219 28.1712 42.4239 22.9728 42.3594 17.7764C42.319 14.5674 39.9999 12.1201 36.8277 12.0873C28.9266 12.0052 21.0214 12.0031 13.1182 12.0955C10.0085 12.1325 7.67732 14.7111 7.65312 17.8749C7.6148 22.9666 7.61682 28.0603 7.65312 33.154C7.6753 36.246 9.97628 38.7302 12.9851 38.9088C16.9579 39.1429 33.0748 39.149 37.1484 38.9006ZM49.9964 25.533C49.9984 31.6717 50.0044 37.8084 49.9943 43.9471C49.9883 48.2894 47.3909 50.983 43.1499 50.9892C31.0945 51.0056 19.037 51.0015 6.98158 50.9892C2.65994 50.9851 0.00806653 48.275 0.0060499 43.8814C-0.00201663 31.6594 -0.00201663 19.4353 0.0060499 7.21327C0.00806653 2.70264 2.60549 0.0233652 7.0441 0.0151529C18.9987 -0.00537799 30.9533 -0.00332491 42.9059 0.0110467C47.4554 0.0151529 49.9923 2.63694 49.9943 7.27692C50.0004 13.3623 49.9964 19.4476 49.9964 25.533Z" fill="#363D47"/>
</svg>
