<?xml version="1.0" encoding="UTF-8"?>
<svg width="138px" height="124px" viewBox="0 0 138 124" version="1.1" xmlns="http://www.w3.org/2000/svg" xmlns:xlink="http://www.w3.org/1999/xlink">
    <title>ICONS-used throughout</title>
    <g id="Page-1" stroke="none" stroke-width="1" fill="none" fill-rule="evenodd">
        <g id="ICONS-used-throughout" transform="translate(-1201.000000, -850.000000)">
            <g id="auto" transform="translate(1210.898672, 871.934469)">
                <path d="M115.887037,23.5322557 L105.67564,23.5322557 C103.635164,23.5322557 101.5436,25.5127569 100.185286,27.1031594 L90.8153224,14.3529325 C88.7478,11.2651511 85.1146101,7.04008175 80.8293092,6.85703542 L43.508726,6.85703542 C39.6261112,6.85703542 36.5849299,9.6927531 34.4723306,12.3964374 L24.1377235,26.6050334 C22.7854196,25.125659 20.9222453,23.5322557 19.0891222,23.5322557 L8.87772501,23.5322557 C7.2249091,23.5322557 5.87260518,24.8825974 5.87260518,26.5330151 L5.87260518,29.0596546 C5.87260518,30.7100723 7.2249091,32.0604141 8.87772501,32.0604141 L14.4612377,32.0604141 C11.9399421,32.771594 10.0647473,35.0731765 10.0647473,37.8128699 L10.0647473,59.0462438 C10.0647473,61.8579554 12.036106,64.2195531 14.6655858,64.8617156 L14.6655858,69.9570052 C14.6655858,73.2578406 17.3701937,75.9585241 20.6758255,75.9585241 L26.4546709,75.9585241 C29.7603027,75.9585241 32.4649106,73.2578406 32.4649106,69.9570052 L32.4649106,65.0477627 L92.2187134,65.0477627 L92.2187134,69.9570052 C92.2187134,73.2578406 94.9233212,75.9585241 98.228953,75.9585241 L104.007798,75.9585241 C107.31343,75.9585241 110.018038,73.2578406 110.018038,69.9570052 L110.018038,64.7266814 C112.422134,63.9404825 114.183134,61.7019159 114.183134,59.0462438 L114.183134,37.8128699 C114.183134,35.0731765 112.310945,32.771594 109.786644,32.0604141 L115.887037,32.0604141 C117.539853,32.0604141 118.892157,30.7100723 118.892157,29.0596546 L118.892157,26.5330151 C118.892157,24.8825974 117.539853,23.5322557 115.887037,23.5322557" id="Fill-6" fill="#9CD7D4"></path>
                <path d="M98.2343622,23.3999222 L99.6227276,20.7052402 C99.9803369,19.9880587 100.662499,19.5439463 101.398753,19.5439463 L109.647807,19.5439463 C109.816094,19.5439463 109.957335,19.7149896 109.957335,19.9190412 L109.957335,23.0248273 C109.957335,23.2288789 109.816094,23.3999222 109.647807,23.3999222 L98.2343622,23.3999222 Z M22.4362247,63.9101748 C22.4362247,65.1464877 21.5286785,66.1547429 20.4077688,66.1547429 L12.1256585,66.1547429 C11.007754,66.1547429 10.0972026,65.1464877 10.0972026,63.9101748 L10.0972026,59.0969566 L22.4362247,59.0969566 L22.4362247,63.9101748 Z M18.5716406,23.3999222 L30.042183,7.78397002 C32.2509461,4.75620373 35.5716035,3.03076705 39.0996142,3.0337639 L72.6577873,3.0337639 L72.6878385,3.0337639 C76.2218595,3.0337639 79.5124657,4.76520601 81.7182236,7.78397002 L93.1857609,23.3999222 L18.5716406,23.3999222 Z M3.12532463,23.3999222 C2.95102768,23.3999222 2.81279216,23.2318797 2.81279216,23.0248273 L2.81279216,19.9190412 C2.81279216,19.7119888 2.95102768,19.5439463 3.12532463,19.5439463 L11.3202864,19.5439463 C12.0565408,19.5439463 12.738703,19.9880587 13.0993174,20.7112417 L14.5267493,23.3999222 L3.12532463,23.3999222 Z M105.524783,52.9964127 C105.524783,53.1464506 105.509757,53.2964886 105.482711,53.4465266 C105.368517,54.0616823 105.022928,54.5988182 104.533093,54.9198995 C104.370817,55.0309276 104.187505,55.0849413 104.007197,55.1359542 C103.932069,55.1599602 103.859947,55.1929686 103.784819,55.2049716 C103.556429,55.2439815 103.325035,55.2439815 103.096646,55.1929686 L75.0588781,48.8853722 C73.4661646,48.5312826 71.8734511,48.2192036 70.2807376,47.952136 C65.4935817,47.1509333 60.6914002,46.7488315 55.8862135,46.7488315 C52.6827558,46.7488315 49.4792981,46.9288771 46.2848557,47.2829667 C43.0874082,47.6400571 39.8959709,48.1741922 36.713549,48.8853722 L36.4641241,48.9423867 L8.67578096,55.2139739 C8.54656081,55.2439815 8.42635601,55.2889929 8.27610002,55.2559845 C7.74419381,55.2559845 7.23933368,55.0279268 6.85467834,54.6108213 C6.46401276,54.1877142 6.24764413,53.6175699 6.24764413,53.0144172 L6.24764413,32.9303342 C6.25966461,29.3474274 8.92520591,26.4246877 12.1977814,26.4156855 L99.5776508,26.4156855 C102.850226,26.4246877 105.515768,29.3474274 105.524783,32.9273335 L105.524783,52.9964127 Z M37.3115679,51.8081119 C49.6445797,49.0474132 62.1488833,49.0474132 74.4818951,51.8081119 L93.4862729,56.1021987 L87.9298063,56.1021987 L23.8456259,56.1021987 L18.2921644,56.1021987 L37.3115679,51.8081119 Z M89.4053202,59.0969566 L101.744342,59.0969566 L101.744342,63.9101748 C101.744342,65.1464877 100.836796,66.1547429 99.7158863,66.1547429 L91.4337761,66.1547429 C90.3158715,66.1547429 89.4053202,65.1464877 89.4053202,63.9101748 L89.4053202,59.0969566 Z M109.647807,16.5491884 L101.365697,16.5491884 L101.353677,16.5491884 C99.5806559,16.5491884 97.9578912,17.5964534 97.1104474,19.2828802 L95.7581435,21.9865645 L83.9390072,5.89949308 C81.1983379,2.14854377 77.0993545,0 72.6908437,0 L72.6728129,0 L39.0996142,0 L39.0815834,0 C34.6760778,0 30.5770943,2.14854377 27.836425,5.89949308 L16.5882615,21.206367 L15.623618,19.2828802 C14.7791793,17.5964534 13.1534095,16.5491884 11.3833939,16.5491884 L11.3713735,16.5491884 L3.12532463,16.5491884 C1.40038584,16.5491884 0,18.0615711 0,19.9190412 L0,23.0248273 C0,24.8852981 1.40038584,26.3976809 3.12532463,26.3976809 L5.87200416,26.3976809 C4.37545448,28.1021123 3.44086221,30.3946925 3.43485197,32.9273335 L3.43485197,53.0144172 C3.43785709,53.3655061 3.46790829,53.7135942 3.5310158,54.040677 C3.79847147,55.4690385 4.61285894,56.7203552 5.76081472,57.4765465 C5.8479632,57.533561 5.94112191,57.5695701 6.03127551,57.620583 C6.41893596,57.944665 6.84265786,58.2057311 7.28441048,58.4277873 L7.28441048,63.8891695 C7.28441048,66.7819016 9.45711212,69.1314962 12.1256585,69.1314962 L20.4077688,69.1314962 C23.0672998,69.1314962 25.2400015,66.7879031 25.2490168,63.9101748 L25.2490168,59.0969566 L86.5234103,59.0969566 L86.5234103,63.8891695 C86.5234103,66.7819016 88.6961119,69.1314962 91.3646583,69.1314962 L99.6467686,69.1314962 C102.3063,69.1314962 104.482006,66.7879031 104.491022,63.9101748 L104.491022,58.3947789 C104.836611,58.2177341 105.167174,58.0046802 105.482711,57.7616187 C107.144543,56.9274076 108.304519,55.1179496 108.304519,53.0144172 L108.304519,32.9273335 C108.301514,30.3976932 107.363916,28.105113 105.864362,26.3976809 L109.647807,26.3976809 C111.369741,26.3976809 112.770127,24.8852981 112.770127,23.0248273 L112.770127,19.9190412 C112.770127,18.0615711 111.369741,16.5491884 109.647807,16.5491884 L109.647807,16.5491884 Z" id="Fill-8" fill="#363D47"></path>
                <path d="M98.1012354,39.3135497 C98.1493174,36.6698806 97.4431142,34.1012306 96.0637642,31.92568 C96.1899792,31.9106762 96.310184,31.862664 96.4363991,31.862664 L96.7639571,31.8056496 C98.6121058,32.0067005 100.063579,33.7321371 100.063579,35.8116634 C100.063579,37.3450515 99.2521963,38.6353781 98.1012354,39.3135497 M80.560351,37.0659809 L81.6301736,36.6998882 L93.1968799,32.7748949 C94.5341582,34.5183361 95.2613972,36.714892 95.2523818,39.0134738 C95.2673045,39.2865429 95.2704126,39.5626128 95.2644023,39.8356819 L81.0081138,39.8416834 C80.5994175,39.7636636 80.2508236,39.484593 80.0554908,39.073489 C79.9653372,38.8904426 79.9142502,38.6953933 79.8992246,38.4973432 C79.8481376,37.9121951 80.1065779,37.3300477 80.560351,37.0659809 M99.2401759,29.5730845 C97.7526415,28.7988886 96.0697744,28.6638544 94.4920865,29.2039911 L79.6888662,34.2422663 C79.283175,34.395305 78.9135453,34.6143604 78.579977,34.881428 C78.5198746,34.9324409 78.480808,35.0014584 78.4237108,35.0554721 C78.1622653,35.2895313 77.9128404,35.5385943 77.7145025,35.8356695 C77.6664206,35.904687 77.6483898,35.9887083 77.6033131,36.0607265 C77.4230059,36.3638032 77.2547192,36.6758822 77.1435297,37.0179687 C77.1194888,37.0989893 77.1224939,37.189012 77.101458,37.2700325 C77.0143096,37.6121191 76.9331713,37.9602072 76.924156,38.3262999 C76.9211508,38.3383029 76.924156,38.3503059 76.924156,38.362309 C76.924156,38.362309 76.924156,38.3653097 76.924156,38.3653097 C76.924156,38.4133219 76.9331713,38.4583333 76.9361764,38.5063454 C76.9391816,38.76141 76.951202,39.0134738 76.9902686,39.2565353 C76.999284,39.3075482 77.0203198,39.3555604 77.0293352,39.4065733 C77.0774171,39.6436333 77.1345144,39.8776925 77.2156526,40.0997487 C77.2306782,40.1417593 77.2577243,40.1777684 77.2727499,40.2197791 C77.3629035,40.444836 77.4620724,40.6608907 77.5822772,40.8649424 C77.6033131,40.8979507 77.6303591,40.9249576 77.6483898,40.9579659 C77.77761,41.1620175 77.9158455,41.3570669 78.0751169,41.5371125 C78.0901425,41.555117 78.1111783,41.5671201 78.1262039,41.5851246 C78.2974957,41.7711717 78.4778029,41.942215 78.6761408,42.0952537 C78.6881613,42.104256 78.7031869,42.1102575 78.7182125,42.1192598 C78.9225607,42.2722985 79.1389293,42.4103335 79.3673184,42.5213616 C79.3853491,42.5273631 79.4033798,42.5333646 79.4214106,42.5393661 C79.6497997,42.6473935 79.8872041,42.7344155 80.133624,42.7944307 C80.1907212,42.8094345 80.2538287,42.8094345 80.310926,42.8214375 C80.5122691,42.8604474 80.7136121,42.8994573 80.9269756,42.9054588 L96.484481,42.9264641 L96.4904912,42.9264641 C96.6016806,42.9264641 96.7038547,42.8934558 96.8090339,42.8664489 C100.192799,42.6503942 102.900412,39.6286295 102.909427,35.904687 C102.909427,35.193507 102.810258,34.4883285 102.617931,33.8131577 C102.086024,31.9616891 100.853925,30.416298 99.2401759,29.5730845" id="Fill-10" fill="#363D47"></path>
                <path d="M18.5782518,32.7862978 L21.5563256,33.7765484 L31.1727091,37.0473762 C31.6144617,37.2574293 31.9179788,37.7165455 31.9750761,38.2416784 C32.0261631,39.0398805 31.5152927,39.7510605 30.8361356,39.8350817 L16.4896936,39.8350817 C16.3033761,37.2784347 17.0546561,34.7397922 18.5782518,32.7862978 M11.711553,35.8860823 C11.711553,33.6655203 13.3553536,31.8620639 15.3747941,31.8620639 C15.4919938,31.8620639 15.6031832,31.9040745 15.7203829,31.9160775 C14.395125,34.0106076 13.6558655,36.5222433 13.6588707,39.0878926 C13.6588707,39.1929192 13.6859167,39.2919443 13.6859167,39.3999716 C12.5289456,38.7218 11.711553,37.4254719 11.711553,35.8860823 M32.074245,34.2386653 L17.3161015,29.1853864 C16.6910366,28.9723325 16.0359205,28.8613044 15.371789,28.8613044 C11.8017066,28.8643052 8.89575573,32.0151026 8.89875852,35.8860823 C8.89875852,39.5860187 11.561297,42.5957804 14.9150108,42.8568465 C14.9931439,42.874851 15.0682719,42.9048586 15.1494101,42.9078594 L15.3747941,42.9078594 L30.4604957,42.9078594 L30.4604957,42.9318655 L30.8421459,42.925864 C32.600141,42.8958564 34.1507828,41.6625442 34.6977146,39.856087 C35.4009127,37.5334992 34.2259108,35.0128613 32.074245,34.2386653" id="Fill-12" fill="#363D47"></path>
                <path d="M86.0891704,19.6753796 L25.7193181,19.6753796 L32.7212473,10.1449676 C34.2839096,8.02343062 36.6098724,6.80212152 39.1011167,6.79612001 L72.7073718,6.79612001 C75.195611,6.80212152 77.5215738,8.02343062 79.0872412,10.1449676 L86.0891704,19.6753796 Z M72.6893411,3.74434764 L72.6743155,3.74434764 L39.1011167,3.74434764 L39.0680604,3.74434764 C35.7113415,3.74434764 32.589022,5.3827623 30.5004638,8.2394853 L21.7315241,20.1855087 C21.4941196,20.4735816 21.3709097,20.8456758 21.3859353,21.229773 C21.4009609,21.6438778 21.5752578,22.0369773 21.8697596,22.3040449 C22.1251948,22.5441056 22.4527528,22.6731383 22.7803109,22.6731383 C22.7953365,22.6731383 22.8133672,22.6731383 22.8313979,22.6731383 L88.9199933,22.6731383 C89.2806077,22.6881421 89.6442272,22.5441056 89.9176931,22.277038 C90.4766454,21.7339006 90.5247273,20.7946628 90.0348928,20.2035132 L81.2599429,8.2394853 C79.1683795,5.3827623 76.04606,3.74434764 72.6893411,3.74434764 L72.6893411,3.74434764 Z" id="Fill-14" fill="#363D47"></path>
                <path d="M67.9851265,38.6002692 L67.9851265,43.056397 C67.9851265,43.2574479 67.8438859,43.4284912 67.672594,43.4284912 L44.1004341,43.4284912 C43.9291422,43.4284912 43.7879016,43.2634494 43.7879016,43.056397 L43.7879016,38.6182738 C43.7879016,38.4142221 43.9291422,38.2461796 44.1004341,38.2461796 L67.672594,38.2251743 C67.8438859,38.2251743 67.9851265,38.3992183 67.9851265,38.6002692 M67.672594,35.2304163 L44.1004341,35.2304163 C42.3785004,35.2304163 40.9751094,36.7427991 40.9751094,38.6002692 L40.9751094,43.0383924 C40.9751094,44.8958625 42.3785004,46.4082453 44.1004341,46.4082453 L67.672594,46.4082453 C69.3975328,46.4082453 70.7979187,44.8958625 70.7979187,43.0383924 L70.7979187,38.6002692 C70.7979187,36.7427991 69.3975328,35.2304163 67.672594,35.2304163" id="Fill-16" fill="#363D47"></path>
                <path d="M48.5471099,9.26214412 C47.9791422,8.85104008 47.2188469,8.93506134 46.7380278,9.46919653 C46.2151369,10.0543446 46.2271574,10.9965831 46.7921199,11.5877327 L54.2147659,18.1233868 C54.2868888,18.1894035 54.368027,18.2434172 54.4491652,18.2884286 L54.2959041,18.4654734 L55.0922609,18.4774764 L55.1102916,18.4774764 C55.5430289,18.4774764 55.9547303,18.2644225 56.2191808,17.8983298 C56.6849744,17.2591681 56.5828003,16.3259319 55.996802,15.8188035 L48.5471099,9.26214412 Z" id="Fill-18" fill="#363D47"></path>
                <path d="M57.4996624,9.16822035 C56.9256845,8.75711631 56.1683943,8.84413833 55.6905802,9.37527275 C55.1676894,9.96342161 55.1797099,10.9026593 55.7416673,11.4938089 L63.1492877,17.9964547 C63.383687,18.2635222 63.7052348,18.4255633 64.0478185,18.4585716 L64.5406582,18.428564 L64.5136121,18.3085336 C64.7780626,18.2185109 65.0154671,18.0444668 65.189764,17.8044061 C65.6525525,17.1652443 65.5533835,16.2320081 64.9673852,15.7248798 L57.4996624,9.16822035 Z" id="Fill-20" fill="#363D47"></path>
            </g>
        </g>
    </g>
</svg>