<?xml version="1.0" encoding="UTF-8"?>
<svg width="138px" height="121px" viewBox="0 0 138 121" version="1.1" xmlns="http://www.w3.org/2000/svg" xmlns:xlink="http://www.w3.org/1999/xlink">
    <title>ICONS-used throughout</title>
    <g id="Page-1" stroke="none" stroke-width="1" fill="none" fill-rule="evenodd">
        <g id="ICONS-used-throughout" transform="translate(-850.000000, -489.000000)">
            <g id="Recargas-box" transform="translate(852.000000, 498.557801)">
                <g id="recargas" transform="translate(39.137378, 0.000000)">
                    <path d="M52.0760221,103.808157 L17.7184871,103.808157 C12.7600393,103.808157 8.70312755,99.7571572 8.70312755,94.8059346 L8.70312755,25.503823 C8.70312755,20.5526005 12.7600393,16.5016002 17.7184871,16.5016002 L52.0760221,16.5016002 C57.0344698,16.5016002 61.0913816,20.5526005 61.0913816,25.503823 L61.0913816,94.8059346 C61.0913816,99.7571572 57.0344698,103.808157 52.0760221,103.808157" id="Fill-6" fill="#9CD7D4"></path>
                    <polygon id="Fill-8" fill="#363D47" points="6.3921904 82.6346294 47.5262707 82.6346294 47.5262707 79.7929277 6.3921904 79.7929277"></polygon>
                    <polygon id="Stroke-10" stroke="#231F20" stroke-width="0.6" points="6.3921904 82.6346294 47.5262707 82.6346294 47.5262707 79.7929277 6.3921904 79.7929277"></polygon>
                    <path d="M28.7677117,88.286825 C28.7677117,89.2800702 27.9533242,90.0872695 26.9556244,90.0872695 C25.9639349,90.0872695 25.1555576,89.2800702 25.1555576,88.286825 C25.1555576,87.290579 25.9639349,86.4773782 26.9556244,86.4773782 C27.9533242,86.4773782 28.7677117,87.290579 28.7677117,88.286825 M26.9556244,83.6386773 C24.3922572,83.6386773 22.3097091,85.7241922 22.3097091,88.286825 C22.3097091,90.846457 24.3922572,92.9259704 26.9556244,92.9259704 C29.5250019,92.9259704 31.6135601,90.846457 31.6135601,88.286825 C31.6135601,85.7241922 29.5250019,83.6386773 26.9556244,83.6386773" id="Fill-11" fill="#363D47"></path>
                    <path d="M28.7677117,88.286825 C28.7677117,89.2800702 27.9533242,90.0872695 26.9556244,90.0872695 C25.9639349,90.0872695 25.1555576,89.2800702 25.1555576,88.286825 C25.1555576,87.290579 25.9639349,86.4773782 26.9556244,86.4773782 C27.9533242,86.4773782 28.7677117,87.290579 28.7677117,88.286825 Z M26.9556244,83.6386773 C24.3922572,83.6386773 22.3097091,85.7241922 22.3097091,88.286825 C22.3097091,90.846457 24.3922572,92.9259704 26.9556244,92.9259704 C29.5250019,92.9259704 31.6135601,90.846457 31.6135601,88.286825 C31.6135601,85.7241922 29.5250019,83.6386773 26.9556244,83.6386773 Z" id="Stroke-12" stroke="#231F20" stroke-width="0.6"></path>
                    <polygon id="Fill-13" fill="#363D47" points="6.3921904 23.5710458 47.5262707 23.5710458 47.5262707 20.7293441 6.3921904 20.7293441"></polygon>
                    <polygon id="Stroke-14" stroke="#231F20" stroke-width="0.6" points="6.3921904 23.5710458 47.5262707 23.5710458 47.5262707 20.7293441 6.3921904 20.7293441"></polygon>
                    <path d="M2.84584848,18.8301752 C2.84584848,16.1745195 4.97046821,14.001983 7.61196854,13.9239638 L46.1616458,13.9299653 C48.8722639,13.9299653 51.0780218,16.1325091 51.0780218,18.8391774 L51.0780218,90.1547862 C51.0780218,92.8614545 48.8722639,95.0639984 46.1616458,95.0639984 L7.76222453,95.0639984 C5.05160644,95.0639984 2.84584848,92.8614545 2.84584848,90.1547862 L2.84584848,18.8301752 Z M46.1616458,11.0882636 L7.76222453,11.0882636 C3.47992877,11.0882636 0,14.5661223 0,18.8391774 L0,90.1637884 C0,94.4368435 3.47992877,97.9147022 7.76222453,97.9147022 L46.1616458,97.9147022 C50.4409364,97.9147022 53.9238703,94.4368435 53.9238703,90.1637884 L53.9238703,18.8391774 C53.9238703,14.5661223 50.4409364,11.0882636 46.1616458,11.0882636 L46.1616458,11.0882636 Z" id="Fill-15" fill="#363D47"></path>
                    <path d="M2.84584848,18.8301752 C2.84584848,16.1745195 4.97046821,14.001983 7.61196854,13.9239638 L46.1616458,13.9299653 C48.8722639,13.9299653 51.0780218,16.1325091 51.0780218,18.8391774 L51.0780218,90.1547862 C51.0780218,92.8614545 48.8722639,95.0639984 46.1616458,95.0639984 L7.76222453,95.0639984 C5.05160644,95.0639984 2.84584848,92.8614545 2.84584848,90.1547862 L2.84584848,18.8301752 Z M46.1616458,11.0882636 L7.76222453,11.0882636 C3.47992877,11.0882636 0,14.5661223 0,18.8391774 L0,90.1637884 C0,94.4368435 3.47992877,97.9147022 7.76222453,97.9147022 L46.1616458,97.9147022 C50.4409364,97.9147022 53.9238703,94.4368435 53.9238703,90.1637884 L53.9238703,18.8391774 C53.9238703,14.5661223 50.4409364,11.0882636 46.1616458,11.0882636 Z" id="Stroke-16" stroke="#231F20" stroke-width="0.6"></path>
                    <polygon id="Fill-17" fill="#363D47" points="21.7513579 18.7518559 32.1731135 18.7518559 32.1731135 15.9101542 21.7513579 15.9101542"></polygon>
                    <polygon id="Stroke-18" stroke="#231F20" stroke-width="0.6" points="21.7513579 18.7518559 32.1731135 18.7518559 32.1731135 15.9101542 21.7513579 15.9101542"></polygon>
                    <path d="M47.8565334,1.86308578 C47.3126067,1.31094945 46.4110707,1.31094945 45.8461082,1.86308578 C45.5756474,2.12715098 45.4253472,2.48123841 45.4253472,2.85933177 C45.4223863,3.24042587 45.5726423,3.60051478 45.8461082,3.87058146 L61.1541886,19.1503542 C61.4186392,19.4144194 61.7852638,19.5644565 62.1578986,19.5644565 C62.5335386,19.5644565 62.9001632,19.4144194 63.1646138,19.1503542 C63.4350746,18.886289 63.5823254,18.5322016 63.5853306,18.1541083 C63.5853306,17.7730142 63.4380797,17.4129252 63.1646138,17.1428586 L47.8565334,1.86308578 Z" id="Fill-19" fill="#363D47"></path>
                    <path d="M47.8565334,1.86308578 C47.3126067,1.31094945 46.4110707,1.31094945 45.8461082,1.86308578 C45.5756474,2.12715098 45.4253472,2.48123841 45.4253472,2.85933177 C45.4223863,3.24042587 45.5726423,3.60051478 45.8461082,3.87058146 L61.1541886,19.1503542 C61.4186392,19.4144194 61.7852638,19.5644565 62.1578986,19.5644565 C62.5335386,19.5644565 62.9001632,19.4144194 63.1646138,19.1503542 C63.4350746,18.886289 63.5823254,18.5322016 63.5853306,18.1541083 C63.5853306,17.7730142 63.4380797,17.4129252 63.1646138,17.1428586 L47.8565334,1.86308578 Z" id="Stroke-20" stroke="#231F20" stroke-width="0.6"></path>
                    <path d="M55.6554203,1.56721273 C55.1114937,1.0150764 54.2099577,1.0150764 53.6449952,1.56721273 C53.3745344,1.83127793 53.2242342,2.18536536 53.2242342,2.56345871 C53.2212733,2.94455281 53.3715293,3.30464172 53.6449952,3.57470841 L61.4432811,11.3616311 C61.7077317,11.628697 62.0743563,11.7787341 62.4469912,11.7787341 C62.8376567,11.7787341 63.1922609,11.6316978 63.4537063,11.3646318 C63.721162,11.1005666 63.8714631,10.7464792 63.8714631,10.3713866 C63.8744231,9.98729176 63.7271722,9.62720285 63.4537063,9.35413543 L55.6554203,1.56721273 Z" id="Fill-21" fill="#363D47"></path>
                    <path d="M55.6554203,1.56721273 C55.1114937,1.0150764 54.2099577,1.0150764 53.6449952,1.56721273 C53.3745344,1.83127793 53.2242342,2.18536536 53.2242342,2.56345871 C53.2212733,2.94455281 53.3715293,3.30464172 53.6449952,3.57470841 L61.4432811,11.3616311 C61.7077317,11.628697 62.0743563,11.7787341 62.4469912,11.7787341 C62.8376567,11.7787341 63.1922609,11.6316978 63.4537063,11.3646318 C63.721162,11.1005666 63.8714631,10.7464792 63.8714631,10.3713866 C63.8744231,9.98729176 63.7271722,9.62720285 63.4537063,9.35413543 L55.6554203,1.56721273 Z" id="Stroke-22" stroke="#231F20" stroke-width="0.6"></path>
                    <path d="M64.6151851,3.05888104 L61.9706797,0.415228288 C61.4207427,-0.136908042 60.5222119,-0.139908783 59.9572494,0.415228288 C59.6867886,0.679293489 59.5395377,1.03338092 59.5365326,1.40847353 C59.5365326,1.79256837 59.6837835,2.15265728 59.9572494,2.42272397 L62.60476,5.06637672 C62.8692105,5.33344266 63.2388402,5.48347971 63.6114751,5.48347971 C63.9991356,5.48347971 64.3567448,5.3364434 64.6151851,5.06637672 C64.8826408,4.80531226 65.0328968,4.45122483 65.0359019,4.07313147 C65.0359019,3.69203738 64.888651,3.33194847 64.6151851,3.05888104" id="Fill-23" fill="#363D47"></path>
                    <path d="M64.6151851,3.05888104 L61.9706797,0.415228288 C61.4207427,-0.136908042 60.5222119,-0.139908783 59.9572494,0.415228288 C59.6867886,0.679293489 59.5395377,1.03338092 59.5365326,1.40847353 C59.5365326,1.79256837 59.6837835,2.15265728 59.9572494,2.42272397 L62.60476,5.06637672 C62.8692105,5.33344266 63.2388402,5.48347971 63.6114751,5.48347971 C63.9991356,5.48347971 64.3567448,5.3364434 64.6151851,5.06637672 C64.8826408,4.80531226 65.0328968,4.45122483 65.0359019,4.07313147 C65.0359019,3.69203738 64.888651,3.33194847 64.6151851,3.05888104 Z" id="Stroke-24" stroke="#231F20" stroke-width="0.6"></path>
                </g>
            </g>
        </g>
    </g>
</svg>