<?xml version="1.0" encoding="utf-8"?>
<!-- Generator: Adobe Illustrator 27.0.0, SVG Export Plug-In . SVG Version: 6.00 Build 0)  -->
<svg version="1.1" id="Layer_1" xmlns="http://www.w3.org/2000/svg" xmlns:xlink="http://www.w3.org/1999/xlink" x="0px" y="0px"
	 viewBox="0 0 49.66 42.95" style="enable-background:new 0 0 49.66 42.95;" xml:space="preserve">
<style type="text/css">
	.st0{fill:#9CD8D5;}
	.st1{fill:#363D47;}
</style>
<path class="st0" d="M39.62,19.89c-0.27-5.07-3.99-9.24-8.88-10.23c-0.06-1.34-1.15-2.41-2.51-2.41c-1.39,0-2.52,1.13-2.52,2.52
	c0,0.01,0,0.01,0,0.02c-4.63,1.18-8.09,5.21-8.36,10.1h-1.5l1.04,2.52h23.18l1.04-2.52H39.62z"/>
<path class="st0" d="M42.06,25.63L42.06,25.63c-0.23-0.86-1.06-1.46-2.01-1.46c-0.34,0-0.67,0.08-0.98,0.22
	c-1.08,0.51-4.94,2.32-6.75,3.13c-0.22-0.95-1.07-1.66-2.09-1.66H26.4c-1.06,0-2.04-0.3-3.07-0.62c-1.11-0.34-2.27-0.7-3.61-0.7
	c-2.25,0-3.32,0.55-4.82,1.32c-0.54,0.28-1.13,0.58-1.86,0.9v-1.1h-1h-3v1v9v1h4v-1.7c1.7-0.36,3.68-0.54,6.35-0.55l0.38,0
	c2.4,0,3.71,0.14,5.39,0.57c0.98,0.25,1.95,0.16,2.98-0.29c3.41-1.48,9.03-4.43,12.29-6.31C41.72,27.66,42.32,26.62,42.06,25.63z
	 M40.86,25.51c0.11,0.11,0.2,0.23,0.23,0.38c0,0,0,0.01,0,0.01L40.86,25.51z"/>
<g>
	<path class="st1" d="M40.56,23.86c-0.23-0.86-1.06-1.46-2.01-1.46c-0.34,0-0.67,0.08-0.98,0.22c-1.08,0.51-4.94,2.32-6.75,3.13
		c-0.22-0.95-1.07-1.66-2.09-1.66H24.9c-1.06,0-2.04-0.3-3.07-0.62c-1.11-0.34-2.27-0.7-3.61-0.7c-2.25,0-3.32,0.55-4.82,1.32
		c-0.54,0.28-1.13,0.58-1.86,0.9v-1.1h-4v1h3v9h-3v1h4v-1.7c1.7-0.36,3.68-0.54,6.35-0.55l0.38,0c2.4,0,3.71,0.14,5.39,0.57
		c0.98,0.25,1.95,0.16,2.98-0.29c3.41-1.48,9.03-4.43,12.29-6.31C40.22,25.89,40.82,24.86,40.56,23.86L40.56,23.86z M38.43,25.77
		c-3.24,1.87-8.82,4.79-12.19,6.26c-0.82,0.36-1.57,0.43-2.33,0.24c-1.77-0.46-3.14-0.61-5.64-0.61l-0.38,0
		c-2.63,0.01-4.62,0.18-6.34,0.53l0-6.09c0.95-0.39,1.67-0.77,2.32-1.1c1.42-0.73,2.35-1.21,4.36-1.21c1.2,0,2.28,0.33,3.32,0.65
		c1.06,0.32,2.15,0.66,3.36,0.66h3.83c0.58,0,1.06,0.44,1.13,1c-0.08,0.73-0.7,1.31-1.45,1.31l-9.2,0v1h9.2
		c1.01,0,1.88-0.61,2.26-1.49c1.61-0.69,7.26-3.35,7.32-3.38c0.18-0.08,0.37-0.13,0.55-0.13c0.5,0,0.94,0.3,1.05,0.72
		C39.73,24.65,39.3,25.27,38.43,25.77L38.43,25.77z"/>
	<path class="st1" d="M16.26,21.57h21.23c1.13,0,2.05-0.94,2.05-2.1v-0.9h-2.32c-0.05-4.74-3.24-8.73-7.57-9.95
		c-0.23-1.33-1.38-2.34-2.77-2.34c-1.39,0-2.55,1.01-2.77,2.34c-4.33,1.22-7.52,5.21-7.57,9.95h-2.32v0.9
		C14.21,20.63,15.13,21.57,16.26,21.57L16.26,21.57z M26.87,7.29c0.75,0,1.39,0.45,1.67,1.09c-0.54-0.09-1.1-0.14-1.67-0.14
		c-0.57,0-1.12,0.05-1.67,0.14C25.49,7.74,26.13,7.29,26.87,7.29z M26.87,9.24c5.12,0,9.29,4.18,9.34,9.33H17.53
		C17.59,13.42,21.76,9.24,26.87,9.24z M16.55,19.57h21.98c-0.05,0.56-0.5,1-1.04,1H16.26c-0.54,0-0.99-0.44-1.04-1H16.55z"/>
	<path class="st1" d="M28.82,11.17l-0.25,0.97c2.24,0.59,4.04,2.34,4.69,4.56l0.96-0.28C33.46,13.86,31.4,11.85,28.82,11.17
		L28.82,11.17z"/>
</g>
</svg>
