<?xml version="1.0" encoding="utf-8"?>
<!-- Generator: Adobe Illustrator 27.0.0, SVG Export Plug-In . SVG Version: 6.00 Build 0)  -->
<svg version="1.1" id="Layer_1" xmlns="http://www.w3.org/2000/svg" xmlns:xlink="http://www.w3.org/1999/xlink" x="0px" y="0px"
	 viewBox="0 0 49.66 42.95" style="enable-background:new 0 0 49.66 42.95;" xml:space="preserve">
<style type="text/css">
	.st0{fill:#9CD8D5;}
	.st1{fill:#363D47;}
</style>
<path class="st0" d="M9.01,26.16v-11.7c0-1.65,1.35-3,3-3h21.93c1.65,0,3,1.35,3,3v11.7c0,1.65-1.35,3-3,3H12.01
	C10.36,29.16,9.01,27.81,9.01,26.16z"/>
<path class="st0" d="M15.78,34.87V20.79c0-1.65,1.35-3,3-3H40.7c1.65,0,3,1.35,3,3v14.08c0,1.65-1.35,3-3,3H18.78
	C17.13,37.87,15.78,36.52,15.78,34.87z"/>
<g>
	<path class="st1" d="M40.09,35.22H15.05c-1.11,0-2.01-0.9-2.01-2.01V17.47c0-1.11,0.9-2.01,2.01-2.01h25.04
		c1.11,0,2.01,0.9,2.01,2.01V33.2C42.1,34.31,41.2,35.22,40.09,35.22z M15.05,16.61c-0.47,0-0.86,0.39-0.86,0.86V33.2
		c0,0.47,0.39,0.86,0.86,0.86h25.04c0.47,0,0.86-0.39,0.86-0.86V17.47c0-0.47-0.39-0.86-0.86-0.86L15.05,16.61z"/>
	<path class="st1" d="M11.34,28.58H8.5c-1.16,0-2.11-0.94-2.11-2.11V10.92c0-1.16,0.94-2.11,2.11-2.11h24.85
		c1.16,0,2.11,0.94,2.11,2.11v2.74c0,0.32-0.26,0.58-0.58,0.58s-0.58-0.26-0.58-0.58v-2.74c0-0.53-0.43-0.96-0.96-0.96H8.5
		c-0.53,0-0.96,0.43-0.96,0.96v15.55c0,0.53,0.43,0.96,0.96,0.96h2.84c0.32,0,0.58,0.26,0.58,0.58
		C11.92,28.32,11.66,28.58,11.34,28.58L11.34,28.58z"/>
	<path class="st1" d="M41.52,19.59H13.61c-0.32,0-0.58-0.26-0.58-0.58c0-0.32,0.26-0.58,0.58-0.58h27.91c0.32,0,0.58,0.26,0.58,0.58
		C42.1,19.33,41.84,19.59,41.52,19.59z"/>
	<path class="st1" d="M41.52,23.53H13.61c-0.32,0-0.58-0.26-0.58-0.58c0-0.32,0.26-0.58,0.58-0.58h27.91c0.32,0,0.58,0.26,0.58,0.58
		C42.1,23.27,41.84,23.53,41.52,23.53z"/>
	<path class="st1" d="M23.75,27.21h-7.4c-0.32,0-0.58-0.26-0.58-0.58c0-0.32,0.26-0.58,0.58-0.58h7.4c0.32,0,0.58,0.26,0.58,0.58
		C24.33,26.96,24.07,27.21,23.75,27.21z"/>
	<path class="st1" d="M23.75,30.31h-7.4c-0.32,0-0.58-0.26-0.58-0.58c0-0.32,0.26-0.58,0.58-0.58h7.4c0.32,0,0.58,0.26,0.58,0.58
		S24.07,30.31,23.75,30.31z"/>
	<path class="st1" d="M35.25,31.03c-1.57,0-2.84-1.27-2.84-2.84c0-1.57,1.27-2.84,2.84-2.84c1.57,0,2.84,1.27,2.84,2.84
		C38.09,29.76,36.82,31.03,35.25,31.03z M35.25,26.5c-0.93,0-1.69,0.76-1.69,1.69s0.76,1.69,1.69,1.69c0.93,0,1.69-0.76,1.69-1.69
		S36.18,26.5,35.25,26.5z"/>
</g>
</svg>
