<?xml version="1.0" encoding="UTF-8"?>
<svg width="138px" height="121px" viewBox="0 0 138 121" version="1.1" xmlns="http://www.w3.org/2000/svg" xmlns:xlink="http://www.w3.org/1999/xlink">
    <title>ICONS-used throughout</title>
    <g id="Page-1" stroke="none" stroke-width="1" fill="none" fill-rule="evenodd">
        <g id="ICONS-used-throughout" transform="translate(-1195.000000, -489.000000)">
            <g id="viajes" transform="translate(1218.708928, 507.494505)">
                <path d="M74.7566132,39.7869321 C82.9215238,30.6016074 86.0588689,15.6788307 83.9011928,12.8011024 C81.7405117,9.92337404 68.6201585,9.56928443 52.9724995,20.9361612 L52.9724995,20.1439607 L11.4146973,9.53927683 L3.49019632,17.7643585 L37.1926153,37.3173071 C30.5122339,45.7614442 23.8588986,55.5139124 18.8373433,63.2108604 L18.8373433,63.2078596 L5.42549349,58.1155708 L0.920818859,62.3346386 L12.5506326,73.0923613 C11.1412314,75.3639362 10.3268439,76.7232802 10.3268439,76.7232802 C10.3268439,76.7232802 8.19621398,80.4652272 13.0044057,80.0421201 C13.7226294,79.9791042 15.4265323,79.2379166 17.8035821,78.0136068 L29.4424112,89.0564015 L33.9470858,84.8373337 L28.5138292,72.2701532 L27.9879332,72.2701532 C36.5976015,67.1568591 47.3980022,60.2761176 56.5485921,53.9895266 L56.395331,54.4666473 L77.2628831,86.0406383 L86.0468484,78.6167594 L74.7566132,39.7869321 Z" id="Fill-6" fill="#9CD7D4"></path>
                <path d="M60.9171348,21.5987289 C62.7352323,23.4141884 62.0170087,25.7217724 61.0673908,27.261162 C60.271034,24.4464496 58.0652761,22.2438922 55.2464737,21.4486909 C56.884264,20.500451 59.1831807,19.7832694 60.9592065,21.5987289 L60.9171348,21.5987289 Z M59.1831807,30.5740004 C59.3033855,31.0511212 59.6700101,31.4292169 60.1478241,31.5642511 C60.2800494,31.6062617 60.4182849,31.6242662 60.5595255,31.6182647 C60.9261502,31.6212655 61.2777492,31.477229 61.5361895,31.2191637 C63.7659884,28.9775964 66.9454052,23.6872575 62.9125344,19.6482353 C58.8796636,15.6062123 53.5666117,18.7960196 51.3247923,21.0225831 C50.9641779,21.3796735 50.8319526,21.9108079 50.9792035,22.3969309 C51.1144339,22.8710509 51.4900739,23.2371436 51.9708931,23.357174 C56.9533817,24.5814838 57.9721174,25.5987413 59.1831807,30.5740004 L59.1831807,30.5740004 Z M75.918693,62.4450666 L74.8999574,59.1052213 L77.0756642,56.9206684 L79.2633914,59.1052213 L75.918693,62.4450666 Z M70.4133135,76.1885449 L52.1782463,48.8786331 C54.4471118,47.1471949 56.6498646,45.3887498 58.7023615,43.6573116 C61.1425188,41.5867876 63.4414355,39.3572233 65.5840859,36.9776211 L75.5069916,71.0752508 L70.4133135,76.1885449 Z M27.996047,76.6296565 L25.4897771,79.1292891 L18.3045356,71.4743518 C20.1346535,70.3760738 22.2682886,69.0677427 24.6212975,67.6123743 L27.996047,76.6296565 Z M12.0148197,72.0504976 C11.5670569,72.2965598 11.0111097,72.2215409 10.6384749,71.8734528 C10.2808656,71.5073601 10.2027325,70.9492189 10.4461472,70.4991049 C14.0793371,64.0954843 27.0464292,41.9258734 41.0022057,25.6677587 C52.3014562,12.5154301 64.357997,7.54017088 71.3088392,7.26410102 L71.8467556,7.26410102 C72.8414503,7.15307292 73.8511706,7.36012532 74.7226553,7.85525063 C75.3086537,8.93252327 75.516007,10.1778384 75.3146639,11.3871445 C75.0261724,18.3819148 70.0286581,30.4779761 56.9113101,41.6227967 C41.7715163,54.3640214 18.7192421,68.1345065 12.0148197,72.0504976 L12.0148197,72.0504976 Z M3.34504903,57.0166927 L5.84831385,54.5140593 L14.6983918,57.8419016 C13.3220469,60.1764924 11.945702,62.3070316 10.8999203,64.1344941 L3.34504903,57.0166927 Z M6.29006647,12.1583397 L11.4107907,7.04504558 L45.6120595,16.9685571 C43.2139739,19.1080986 40.9631391,21.4036796 38.8685706,23.8402962 C37.0775192,25.913821 35.3165189,28.0983739 33.5825648,30.3129344 L6.29006647,12.1583397 Z M23.3982137,3.3211031 L25.5859409,5.50565598 L23.3982137,7.66320202 L20.0114436,6.6879552 L23.3982137,3.3211031 Z M37.1616625,7.44414658 L39.3493898,9.62869946 L37.2848724,11.6902212 L33.8981024,10.7149744 L37.1616625,7.44414658 Z M72.9466295,43.1771901 L75.1343567,45.361743 L71.8587761,48.617567 L70.8821122,45.2387119 L72.9466295,43.1771901 Z M82.1813627,58.1299745 L78.0523281,54.006931 C77.5174168,53.4667943 76.645932,53.4637935 76.1050104,53.9979287 C76.1050104,54.0009295 76.1020053,54.0039302 76.0990002,54.006931 L74.0344829,56.0804558 L72.7392762,51.6273287 L78.0523281,46.3369898 C78.5932497,45.8028547 78.5962548,44.9326344 78.0613435,44.3924977 C78.0583383,44.3894969 78.0553332,44.3894969 78.0523281,44.3864962 L73.9232934,40.2634527 C73.3883821,39.723316 72.5168974,39.7203152 71.9759758,40.2544504 C71.9759758,40.2574512 71.9729707,40.2604519 71.9699656,40.2634527 L70.0016121,42.2289501 L67.7447671,34.4629847 C74.8729113,25.6677587 77.8329543,17.1035913 78.0673537,11.5101756 C78.1484919,9.6707101 77.9711899,7.19508355 76.6910088,5.90475698 C75.4108278,4.61142966 73.0007217,4.53040915 71.1856293,4.53040915 C65.6802497,4.7344608 57.0224995,7.69020886 48.1183294,14.8380179 L40.2869871,12.5694437 L42.2523355,10.6039463 C42.7932571,10.0698111 42.7962622,9.19959086 42.2613509,8.65945416 C42.2583458,8.6564534 42.2553406,8.65345264 42.2523355,8.65345264 L38.1233009,4.53040915 C37.5883895,3.99027245 36.7169048,3.98727169 36.1789883,4.52140688 C36.1759832,4.52440764 36.1729781,4.5274084 36.169973,4.53040915 L30.8839672,9.83275111 L26.4243694,8.54242454 L28.5039123,6.4809028 C29.0448338,5.94676762 29.047839,5.07654738 28.5129276,4.53641067 C28.5099225,4.53340991 28.5069174,4.53040915 28.5039123,4.53040915 L24.3748776,0.407365669 C23.8399663,-0.132771033 22.9684815,-0.135771792 22.42756,0.39836339 C22.4245549,0.40136415 22.4215497,0.404364909 22.4215497,0.407365669 L17.012334,5.80873268 L11.3957651,4.13130815 C10.9089357,3.98127018 10.3800346,4.11330359 10.0194202,4.47339473 L3.13769576,11.3451339 C2.83117354,11.6542121 2.68993291,12.0863215 2.75304042,12.5154301 C2.79811722,12.9235333 3.02350121,13.2926268 3.37209511,13.5176837 L31.9027028,32.512491 C25.9585758,40.3444732 20.4802423,48.605564 16.1859261,55.4502963 L5.98654936,51.6273287 C5.48168923,51.4382809 4.91071646,51.561312 4.52906624,51.9454092 L0.400031592,56.0684527 C0.138586166,56.3295188 -0.0056595858,56.6866092 0.000170081346,57.0587034 C0.000170081346,57.4307975 0.153611765,57.7878879 0.42707767,58.0459532 L9.46948325,66.5681101 L8.00899501,69.1097533 C6.93616723,70.9882287 7.58827823,73.3828348 9.46948325,74.4541059 C10.692567,75.1502821 12.1921218,75.1412798 13.4061902,74.4300998 L15.882409,72.9597277 L24.4560159,82.0430265 C24.7144562,82.3130949 25.0750705,82.4691344 25.4477054,82.4691344 C25.8113249,82.4631329 26.1629239,82.3220972 26.4243694,82.0700334 L30.553404,77.9469899 C30.9380593,77.5658934 31.0612693,76.9957491 30.8719467,76.4916216 L26.9893319,66.157006 C33.9551997,61.7698957 42.3094328,56.2454975 49.9604679,50.5440546 L69.0519942,79.1022823 C69.2773782,79.4473696 69.6440028,79.6754273 70.0557042,79.7204387 L70.1939397,79.7204387 C70.5605644,79.7234395 70.9121634,79.579403 71.1706037,79.3213377 L78.0523281,72.4495986 C78.4129425,72.0895074 78.5451677,71.5613738 78.3979169,71.0752508 L76.772147,65.4698321 L82.1813627,60.0684651 C82.7162741,59.5313291 82.7162741,58.6641097 82.1813627,58.1299745 L82.1813627,58.1299745 Z" id="Fill-8" fill="#363D47"></path>
            </g>
        </g>
    </g>
</svg>